SplineFontDB: 3.0
FontName: Viravong
FullName: Viravong
FamilyName: Viravong
Weight: Regular
Copyright: Viravong, Lao Pali font based on Sanit Phokhaphan's LaneXang_Mon.\nCopyright (c) 2018, Theppitak Karoonboonyanan.\n\nLaneXang_Mon - font for the Laotian language of Laos.\nCopyright (c) 2013, Sanit Phokhaphan.\n
UComments: "2018-9-3: Created with FontForge (http://fontforge.org)"
Version: 001.005
ItalicAngle: 0
UnderlinePosition: -100
UnderlineWidth: 50
Ascent: 800
Descent: 200
InvalidEm: 0
LayerCount: 2
Layer: 0 0 "Back" 1
Layer: 1 0 "Fore" 0
XUID: [1021 642 1126272861 3024291]
FSType: 0
OS2Version: 0
OS2_WeightWidthSlopeOnly: 0
OS2_UseTypoMetrics: 1
CreationTime: 1535951478
ModificationTime: 1539071190
PfmFamily: 17
TTFWeight: 400
TTFWidth: 5
LineGap: 90
VLineGap: 0
OS2TypoAscent: 0
OS2TypoAOffset: 1
OS2TypoDescent: 0
OS2TypoDOffset: 1
OS2TypoLinegap: 90
OS2WinAscent: 0
OS2WinAOffset: 1
OS2WinDescent: 0
OS2WinDOffset: 1
HheadAscent: 0
HheadAOffset: 1
HheadDescent: 0
HheadDOffset: 1
OS2Vendor: 'PfEd'
Lookup: 260 0 0 "'mark' BelowBase Mark Positioning" { "BelowBase Mark Positioning-1"  } ['mark' ('DFLT' <'dflt' > 'lao ' <'LAO ' 'dflt' > ) ]
Lookup: 260 0 0 "'mark' AboveBase Mark Positioning" { "AboveBase Mark Positioning-1"  } ['mark' ('DFLT' <'dflt' > 'lao ' <'LAO ' 'dflt' > ) ]
Lookup: 260 0 0 "'mark' AboveLeft Mark Positioning" { "AboveLeft Mark Positioning-1"  } ['mark' ('DFLT' <'dflt' > 'lao ' <'LAO ' 'dflt' > ) ]
Lookup: 262 0 0 "'mkmk' BelowMark Mark to Mark" { "BelowMark Mark to Mark-1"  } ['mkmk' ('DFLT' <'dflt' > 'lao ' <'LAO ' 'dflt' > ) ]
Lookup: 262 2 0 "'mkmk' AboveMark Mark to Mark" { "AboveMark Mark to Mark-1"  } ['mkmk' ('DFLT' <'dflt' > 'lao ' <'LAO ' 'dflt' > ) ]
MarkAttachClasses: 5
"AboveBase" 0 
"BelowBase" 0 
"AboveMark" 0 
"BelowMark" 0 
DEI: 91125

StartChar: uni0E81
Encoding: 3713 3713 0
Width: 707
VWidth: 1060
Flags: W
HStem: -8 48<98.4817 167.511> 0 21G<503 590.5> 113 48<99.2789 158.836> 418 48<66.2962 158.641> 523 68<317.787 503.215> 543 48<66.923 147.124>
VStem: 12 50<472.173 536.06> 44 50<44.9865 107.739> 159 72<159 421> 171 60<44.908 109.47> 535 72<15.8203 491.762>
AnchorPoint: "AboveBase" 383 617 basechar 0
AnchorPoint: "BelowBase" 408 -35 basechar 0
LayerCount: 2
Fore
SplineSet
62 506 m 3x36a0
 62 480 83 466 111 466 c 3
 130 466 144 468 159 471 c 1
 159 509 145 543 115 543 c 3
 84 543 62 526 62 506 c 3x36a0
171 77 m 3xb160
 171 97 153 113 133 113 c 3
 114 113 94 96 94 77 c 3
 94 57 113 40 133 40 c 3
 154 40 171 57 171 77 c 3xb160
138 161 m 3
 148 161 153 159 159 159 c 1
 159 421 l 1
 159 421 138 418 124 418 c 3
 58 418 12 445 12 501 c 3
 12 561 55 591 117 591 c 3xb6a0
 178 591 211 560 221 511 c 1
 276 562 320 591 404 591 c 3
 500 591 608 549 608 466 c 2
 607 67 l 2
 607 48 597 30 584 0 c 1
 503 0 l 1
 503 0 535 47 535 65 c 2
 536 441 l 2
 536 499 483 523 406 523 c 3x7aa0
 338 523 265 478 231 441 c 1
 231 88 l 2
 231 41 194 -8 138 -8 c 3
 86 -8 44 30 44 73 c 259
 44 121 86 161 138 161 c 3
EndSplineSet
EndChar

StartChar: uni0E82
Encoding: 3714 3714 1
Width: 628
VWidth: 1063
Flags: W
HStem: -8 68<83.0906 251.78> 0 21G<431 516.5> 64 68<318.044 449.823> 285 57<112.022 223.192> 412 48<162.823 223.687> 523 68<146.279 385.378>
VStem: 1 72<74.9058 123.13 353.951 464.587> 110 50<344.303 409.644> 227 50<345.413 409.071> 451 72<0.539446 57.8518 312.374 466.638>
AnchorPoint: "AboveBase" 266 617 basechar 0
AnchorPoint: "BelowBase" 330 -35 basechar 0
LayerCount: 2
Fore
SplineSet
196 460 m 3xbfc0
 239 460 277 426 277 377 c 3
 277 317 230 285 137 285 c 3
 61 285 3 340 3 414 c 3
 3 534 124 591 263 591 c 3
 414 591 529 544 529 399 c 3
 529 285 451 214 370 187 c 0
 337 176 258 164 186 154 c 16
 142 148 73 121 73 103 c 3
 73 70 129 60 154 60 c 3xbfc0
 265 60 307 132 394 132 c 3
 463 132 523 109 523 42 c 3
 523 19 522 13 511 0 c 1
 431 0 l 1x7fc0
 438 10 451 28 451 39 c 3
 451 52 435 64 384 64 c 3
 318 64 273 -8 168 -8 c 3
 87 -8 1 10 1 105 c 3
 1 171 92 205 181 216 c 0
 235 223 285 232 330 243 c 0
 385 257 457 316 457 389 c 3
 457 497 358 523 262 523 c 3
 183 523 75 493 75 412 c 3
 75 366 88 350 121 344 c 1
 113 351 110 364 110 377 c 3
 110 428 145 460 196 460 c 3xbfc0
160 377 m 3
 160 359 175 342 193 342 c 3
 211 342 227 359 227 377 c 3
 227 395 211 412 193 412 c 3
 175 412 160 395 160 377 c 3
EndSplineSet
EndChar

StartChar: uni0E84
Encoding: 3716 3716 2
Width: 676
VWidth: 1059
Flags: W
HStem: -8 57<124.312 253.432> 0 21G<456 546> 125 48<184.872 254.297> 232 48<137.378 235.196> 358 48<145.868 233.991> 523 68<165.21 394.283>
VStem: 3 72<92.6338 269.238 360.582 451.919> 131 50<61.0322 120.44> 239 50<285.8 352.835> 258 50<53.9782 121.676> 490 72<26.4537 455.462>
AnchorPoint: "AboveBase" 291 617 basechar 0
AnchorPoint: "BelowBase" 351 -35 basechar 0
LayerCount: 2
Fore
SplineSet
197 232 m 3x7fa0
 149 232 118 247 92 270 c 1
 81 251 75 227 75 191 c 3
 75 127 91 75 134 61 c 1
 134 61 131 79 131 83 c 3
 131 129 178 173 221 173 c 3
 266 173 308 132 308 83 c 3
 308 24 249 -8 189 -8 c 3xbf60
 64 -8 3 73 3 195 c 3
 3 247 22 276 47 311 c 1
 28 339 7 367 7 409 c 3
 7 531 156 591 292 591 c 3
 420 591 562 523 562 430 c 2
 562 97 l 2
 562 53 553 35 539 0 c 1
 456 0 l 1
 469 29 490 66 490 97 c 2
 490 406 l 2
 490 474 372 523 295 523 c 3
 193 523 79 489 79 396 c 3
 79 379 80 369 88 360 c 1
 113 391 142 406 195 406 c 3
 248 406 289 369 289 317 c 3
 289 270 248 232 197 232 c 3x7fa0
189 280 m 3
 212 280 239 290 239 316 c 3x3fa0
 239 341 220 358 195 358 c 3
 170 358 146 343 125 313 c 1
 146 291 168 280 189 280 c 3
220 49 m 3xbf60
 241 49 258 67 258 89 c 3
 258 110 241 125 220 125 c 3
 201 125 181 108 181 89 c 3
 181 66 195 49 220 49 c 3xbf60
EndSplineSet
EndChar

StartChar: uni0E87
Encoding: 3719 3719 3
Width: 526
VWidth: 1063
Flags: W
HStem: -167 68<21.077 225.71> 348 48<63.4368 130.029> 523 68<132.646 296.75>
VStem: -1 60<400.698 467.423> 134 50<399.996 469.216> 364 72<-2.56445 466.916>
AnchorPoint: "AboveBase" 217 617 basechar 0
AnchorPoint: "BelowBase" 290 -194 basechar 0
LayerCount: 2
Fore
SplineSet
134 435 m 3
 134 455 117 473 97 473 c 259
 76 473 59 456 59 435 c 3
 59 413 76 396 97 396 c 259
 118 396 134 414 134 435 c 3
184 430 m 3
 184 386 145 348 95 348 c 259
 29 348 -1 385 -1 449 c 3
 -1 540 107 591 201 591 c 3
 318 591 436 537 436 422 c 2
 436 66 l 2
 436 -94 276 -167 132 -167 c 3
 101 -167 57 -164 0 -158 c 1
 1 -69 l 1
 40 -84 61 -99 117 -99 c 3
 207 -99 364 -38 364 52 c 2
 364 422 l 2
 364 475 289 523 194 523 c 3
 175 523 154 522 130 512 c 1
 152 506 184 474 184 430 c 3
EndSplineSet
EndChar

StartChar: uni0E88
Encoding: 3720 3720 4
Width: 673
VWidth: 1060
Flags: W
HStem: -8 21G<362 442> 234 48<242.87 312.726> 361 70<76.6074 109.1> 370 48<242.678 315.271> 523 68<132.894 429.425>
VStem: 3 72<435.546 485.718> 187 50<286.851 364.756> 321 72<78.7824 228 286.968 364.725> 484 72<298.337 476.778>
AnchorPoint: "AboveBase" 279 617 basechar 0
AnchorPoint: "BelowBase" 409 -35 basechar 0
LayerCount: 2
Fore
SplineSet
474 82 m 0xef80
 468 36 462 -8 422 -8 c 2
 388 -8 l 2
 336 -8 321 125 321 192 c 2
 321 228 l 1
 310 237 l 1
 302 235 293 234 283 234 c 3
 235 234 187 269 187 324 c 3
 187 379 227 418 286 418 c 3
 359 418 393 372 393 226 c 3
 393 159 398 112 409 75 c 1
 434 274 484 264 484 418 c 3xdf80
 484 511 382 523 288 523 c 3
 219 523 75 504 75 457 c 3
 75 435 107 433 128 431 c 1
 107 361 l 1
 51 368 3 394 3 454 c 3
 3 559 182 591 290 591 c 3
 431 591 556 550 556 428 c 3
 556 309 487 183 474 82 c 0xef80
321 326 m 3
 321 352 305 370 279 370 c 3
 253 370 237 352 237 326 c 3
 237 300 254 282 279 282 c 3
 304 282 321 300 321 326 c 3
EndSplineSet
EndChar

StartChar: uni0E8A
Encoding: 3722 3722 5
Width: 678
VWidth: 1063
Flags: W
HStem: -8 68<123.497 298.66> 55 68<368.466 505.203> 305 48<85.9287 157.246> 421 48<110.436 156.665> 523 68<166.995 421.646>
VStem: 23 60<357.115 476.343> 51 72<68.2831 113.775> 160 50<357.513 416.788> 508 72<-180.855 47.3099 284.407 454.015>
AnchorPoint: "AboveBase" 303 617 basechar 0
AnchorPoint: "BelowBase" 356 -35 basechar 0
LayerCount: 2
Fore
SplineSet
160 387 m 3x3d80
 160 406 142 421 121 421 c 3
 100 421 83 406 83 387 c 3
 83 368 100 353 121 353 c 3
 142 353 160 368 160 387 c 3x3d80
530 -214 m 1
 513 -157 508 -118 508 -55 c 2
 508 21 l 2
 508 44 488 55 445 55 c 3x7b80
 383 55 317 -8 197 -8 c 3
 94 -8 51 39 51 94 c 3xbb80
 51 133 106 156 210 163 c 0
 244 165 285 172 331 183 c 0
 422 205 512 269 512 371 c 3
 512 479 415 523 307 523 c 3
 215 523 155 506 110 468 c 1
 116 469 121 469 126 469 c 3
 162 469 210 436 210 390 c 3
 210 337 170 305 125 305 c 3
 53 305 23 349 23 415 c 3xbd80
 23 535 172 591 305 591 c 3
 474 591 584 519 584 364 c 3
 584 230 469 167 365 132 c 0
 327 119 285 109 235 105 c 0
 182 100 123 97 123 82 c 0
 123 67 178 60 196 60 c 3xbb80
 296 60 349 123 459 123 c 3x7b80
 523 123 580 97 580 33 c 2
 580 -78 l 2
 580 -126 590 -171 612 -195 c 1
 530 -214 l 1
EndSplineSet
EndChar

StartChar: uni0E8D
Encoding: 3725 3725 6
Width: 667
VWidth: 1063
Flags: W
HStem: -8 68<176.003 388.232> 242 68<124.288 273.323> 403 48<163.193 228.538> 534 57<163.089 228.965> 560 20G<440 530.5>
VStem: -1 72<130.523 202.651 346.84 488.924> 234 50<455.335 529.891> 475 72<126.073 558.145>
AnchorPoint: "AboveBase" 272 617 basechar 0
AnchorPoint: "BelowBase" 365 -35 basechar 0
LayerCount: 2
Fore
SplineSet
475 462 m 2xf7
 475 514 462 547 440 580 c 1
 526 580 l 1xef
 535 552 547 528 547 491 c 2
 547 154 l 2
 547 66 407 -8 281 -8 c 3
 151 -8 -1 62 -1 178 c 3
 -1 220 21 252 65 274 c 1
 31 296 -1 351 -1 392 c 3
 -1 505 64 591 186 591 c 3
 250 591 284 555 284 497 c 3
 284 444 241 403 194 403 c 3
 139 403 109 445 103 499 c 1
 80 487 71 436 71 398 c 3
 71 329 152 310 212 310 c 11
 236 310 273 314 273 314 c 1
 280 245 l 1
 280 245 253 242 235 242 c 3
 150 242 71 203 71 175 c 3
 71 109 201 60 285 60 c 3
 368 60 475 105 475 178 c 2
 475 462 l 2xf7
196 451 m 3
 218 451 234 471 234 493 c 3
 234 515 218 534 196 534 c 3xf7
 174 534 158 515 158 493 c 3
 158 471 174 451 196 451 c 3
EndSplineSet
EndChar

StartChar: uni0E94
Encoding: 3732 3732 7
Width: 685
VWidth: 1063
Flags: W
HStem: -8 57<136.24 208.335> 0 21G<375 512> 133 48<135.432 208.574> 523 68<182.645 409.426>
VStem: 4 72<117.847 436.938> 215 50<56.1406 125.613> 502 72<105.367 446.341>
AnchorPoint: "AboveBase" 295 617 basechar 0
AnchorPoint: "BelowBase" 384 -35 basechar 0
LayerCount: 2
Fore
SplineSet
574 394 m 2xbe
 574 170 l 2
 574 113 537 43 487 0 c 1
 375 0 l 1x7e
 424 37 502 107 502 161 c 2
 502 370 l 2
 502 478 403 523 295 523 c 3
 193 523 76 472 76 370 c 2
 76 184 l 2
 76 157 81 135 87 117 c 1
 92 153 140 181 177 181 c 3
 215 181 265 141 265 88 c 3
 265 32 217 -8 169 -8 c 3
 68 -8 4 71 4 171 c 2
 4 410 l 2
 4 519 170 591 295 591 c 3
 442 591 574 528 574 394 c 2xbe
129 91 m 3
 129 68 151 49 171 49 c 3xbe
 191 49 215 68 215 91 c 3
 215 114 192 133 172 133 c 3
 152 133 129 114 129 91 c 3
EndSplineSet
EndChar

StartChar: uni0E95
Encoding: 3733 3733 8
Width: 772
VWidth: 1063
Flags: W
HStem: -8 57<164.372 242.885> 0 21G<444 589> 133 48<164.461 243.431> 523 68<122.5 226.127 437.404 545.291>
VStem: 14 72<119.257 481.174> 249 50<55.0109 126.986> 585 72<111.485 475.622>
AnchorPoint: "AboveBase" 335 617 basechar 0
AnchorPoint: "BelowBase" 443 -35 basechar 0
LayerCount: 2
Fore
SplineSet
495 591 m 3xbe
 599 591 657 505 657 393 c 2
 657 199 l 2
 657 100 620 55 558 0 c 1
 444 0 l 1x7e
 513 48 585 108 585 175 c 2
 585 370 l 2
 585 441 561 523 498 523 c 3
 449 523 399 475 375 433 c 0
 368 419 353 405 335 405 c 3
 321 405 302 422 297 432 c 0
 270 470 214 523 170 523 c 3
 108 523 86 441 86 408 c 2
 86 193 l 2
 86 164 87 132 110 116 c 1
 121 157 165 181 201 181 c 3
 250 181 299 145 299 88 c 3
 299 29 250 -8 192 -8 c 3
 92 -8 14 66 14 170 c 2
 14 395 l 2
 14 506 69 591 173 591 c 3
 248 591 303 555 334 509 c 1
 367 550 421 591 495 591 c 3xbe
249 91 m 3
 249 114 231 133 204 133 c 3
 177 133 159 114 159 91 c 3
 159 68 176 49 203 49 c 3xbe
 230 49 249 68 249 91 c 3
EndSplineSet
EndChar

StartChar: uni0E96
Encoding: 3734 3734 9
Width: 645
VWidth: 1053
Flags: W
HStem: -8 48<147.961 219.291> 118 48<155.36 219.291> 422 48<-7.88381 83> 523 68<240.21 418.892> 543 48<-7.56258 73.9355>
VStem: -61 50<474.705 537.337> 83 72<163 426> 83 60<45.4521 113.819> 224 50<45.4363 112.693> 452 72<-152.05 491.65>
AnchorPoint: "AboveBase" 303 617 basechar 0
AnchorPoint: "BelowBase" 309 -35 basechar 0
LayerCount: 2
Fore
SplineSet
83 474 m 1xedc0
 83 495 l 2
 83 508 69 543 42 543 c 3
 11 543 -11 532 -11 505 c 3
 -11 473 17 470 48 470 c 3
 53 470 83 474 83 474 c 1xedc0
224 79 m 259
 224 101 205 118 183 118 c 3
 161 118 143 101 143 79 c 259
 143 57 161 40 183 40 c 3
 205 40 224 57 224 79 c 259
182 -8 m 3
 124 -8 83 32 83 89 c 2xf5c0
 83 426 l 1
 72 424 61 422 48 422 c 3
 -4 422 -61 451 -61 501 c 3
 -61 558 -21 591 42 591 c 3xeec0
 105 591 134 561 151 511 c 1
 197 548 242 591 324 591 c 3
 415 591 524 554 524 469 c 2
 524 42 l 2
 524 -70 534 -177 586 -213 c 1
 501 -247 l 1
 470 -187 452 -103 452 -10 c 2
 452 445 l 2
 452 501 388 523 326 523 c 3
 242 523 206 475 155 441 c 1
 155 163 l 1xf6c0
 161 165 169 166 182 166 c 3
 235 166 274 126 274 78 c 3
 274 30 235 -8 182 -8 c 3
EndSplineSet
EndChar

StartChar: uni0E97
Encoding: 3735 3735 10
Width: 792
VWidth: 1063
Flags: W
HStem: -8 68<126.594 288.199> 0 21G<566 664> 390 48<66.1362 122.974> 523 68<443.036 572.594> 543 48<67.0135 163.562>
VStem: 4 72<106.987 224.281> 5 50<450.087 531.154> 176 60<449.367 530.837> 336 72<103.99 485.936> 607 72<31.1628 484.7>
AnchorPoint: "AboveBase" 341 617 basechar 0
AnchorPoint: "BelowBase" 454 -35 basechar 0
LayerCount: 2
Fore
SplineSet
505 591 m 3xb5c0
 619 591 679 528 679 412 c 2
 679 106 l 2
 679 58 673 35 655 0 c 1
 566 0 l 1x75c0
 585 30 607 58 607 107 c 2
 607 407 l 2
 607 476 578 523 505 523 c 3
 444 523 408 480 408 410 c 2
 408 161 l 2
 408 57 325 -8 216 -8 c 3
 94 -8 4 46 4 172 c 3xb5c0
 4 265 82 317 124 395 c 1
 117 392 109 390 101 390 c 3
 55 390 5 435 5 489 c 3
 5 551 51 591 113 591 c 3xabc0
 186 591 236 553 236 491 c 3
 236 436 210 405 185 354 c 16
 163 310 76 215 76 172 c 3
 76 96 139 60 213 60 c 11
 275 60 336 100 336 160 c 2
 336 412 l 2
 336 531 383 591 505 591 c 3xb5c0
176 490 m 3
 176 515 155 543 115 543 c 3
 75 543 55 515 55 490 c 3x2bc0
 55 465 75 438 115 438 c 0
 155 438 176 465 176 490 c 3
EndSplineSet
EndChar

StartChar: uni0E99
Encoding: 3737 3737 11
Width: 770
VWidth: 1063
Flags: W
HStem: -8 68<1 75.2656 303.505 495.341> 404 48<58.6723 147.558> 543 48<57.3291 153.863> 560 20G<496 590.5>
VStem: 1 50<460.137 535.753> 148 72<133.729 412> 160 60<459.699 534.238> 535 72<94.3275 548.746>
AnchorPoint: "AboveBase" 357 617 basechar 0
AnchorPoint: "BelowBase" 405 -35 basechar 0
LayerCount: 2
Fore
SplineSet
607 118 m 2xdd
 607 29 485 -8 398 -8 c 3
 261 -8 247 65 182 65 c 3
 143 65 123 -8 1 -8 c 1
 1 60 l 1
 81 60 148 129 148 202 c 2
 148 412 l 1xdd
 136 406 121 404 104 404 c 3
 48 404 1 440 1 497 c 3
 1 559 36 591 106 591 c 3
 171 591 220 552 220 490 c 2xeb
 220 203 l 2
 220 112 309 60 400 60 c 3
 466 60 535 83 535 143 c 2
 535 477 l 2
 535 519 511 551 496 580 c 1
 585 580 l 1
 596 549 607 523 607 477 c 2
 607 118 l 2xdd
160 498 m 3xeb
 160 525 141 543 105 543 c 3
 70 543 51 525 51 498 c 3
 51 472 70 452 105 452 c 3
 141 452 160 472 160 498 c 3xeb
EndSplineSet
EndChar

StartChar: uni0E9A
Encoding: 3738 3738 12
Width: 695
VWidth: 1063
Flags: W
HStem: -8 68<153.484 395.706> 392 48<61.2319 110.421> 543 48<60.9389 144.116> 560 20G<457 549.5>
VStem: 1 72<125.766 238.245> 2 50<449.234 533.879> 153 60<449.259 534.259> 497 72<138.781 545.504>
AnchorPoint: "BelowBase" 381 -35 basechar 0
AnchorPoint: "AboveBase" 286 617 basechar 0
LayerCount: 2
Fore
SplineSet
73 188 m 3xeb
 73 92 180 60 278 60 c 3
 382 60 497 106 497 203 c 2
 497 473 l 2
 497 517 472 549 457 580 c 1
 546 580 l 1
 553 553 569 532 569 501 c 2
 569 205 l 2
 569 65 430 -8 278 -8 c 3
 141 -8 1 44 1 188 c 3xdb
 1 267 65 313 111 386 c 1
 110 392 102 392 97 392 c 3
 42 392 2 430 2 486 c 3xd7
 2 547 37 591 97 591 c 3
 159 591 213 553 213 489 c 3
 213 450 204 417 187 388 c 0
 158 338 73 218 73 188 c 3xeb
153 492 m 3
 153 520 133 543 102 543 c 3
 72 543 52 520 52 492 c 3xe7
 52 465 72 440 102 440 c 3
 133 440 153 465 153 492 c 3
EndSplineSet
EndChar

StartChar: uni0E9B
Encoding: 3739 3739 13
Width: 697
VWidth: 1058
Flags: W
HStem: -8 68<191.433 425.478> 389 48<100.261 149.699> 543 48<99.5382 180.817> 859 57<523.277 651.917> 886 57<464.713 550.524>
VStem: 41 72<121.826 239.46> 42 50<444.258 535.567> 189 60<444.723 535.447> 404 60<849.061 885.172> 525 72<138.472 782.879>
AnchorPoint: "AboveLeft" 453 617 basechar 0
AnchorPoint: "BelowBase" 412 -35 basechar 0
LayerCount: 2
Fore
SplineSet
189 490 m 3xe3c0
 189 521 171 543 140 543 c 3
 109 543 92 521 92 490 c 3
 92 459 109 437 140 437 c 3
 171 437 189 459 189 490 c 3xe3c0
680 889 m 1
 635 866 621 859 576 859 c 3xf5c0
 543 859 521 886 491 886 c 3
 476 886 464 878 464 864 c 0
 464 856 473 850 490 848 c 0
 537 843 597 803 597 762 c 2
 597 209 l 2
 597 73 463 -8 313 -8 c 3
 169 -8 41 48 41 187 c 3xedc0
 41 266 109 317 150 385 c 1
 149 388 141 389 136 389 c 3
 81 389 42 430 42 484 c 3xebc0
 42 544 78 591 137 591 c 3
 193 591 249 556 249 488 c 3
 249 449 238 405 223 381 c 0
 196 336 113 219 113 187 c 3
 113 92 215 60 313 60 c 3
 413 60 525 108 525 206 c 2
 525 758 l 2
 525 773 491 794 466 799 c 0
 435 805 404 834 404 874 c 3
 404 913 449 943 495 943 c 3xedc0
 536 943 543 916 579 916 c 3xf5c0
 601 916 624 922 642 935 c 1
 680 889 l 1
EndSplineSet
EndChar

StartChar: uni0E9C
Encoding: 3740 3740 14
Width: 754
VWidth: 1063
Flags: W
HStem: -8 68<136.053 262.685 422.592 538.404> 398 48<152.598 222.698 492.399 575.371> 534 57<154.661 222.949 490.225 568.956> 560 20G<317 389>
VStem: 12 72<117.297 458.959> 229 50<452.007 528.802> 317 72<111.962 580> 435 50<454.444 528.271> 587 72<111.779 413> 648 60<523.177 593>
AnchorPoint: "AboveBase" 353 617 basechar 0
AnchorPoint: "BelowBase" 442 -35 basechar 0
LayerCount: 2
Fore
SplineSet
536 446 m 3xef
 565 446 579 460 579 487 c 3
 579 511 551 534 528 534 c 3
 505 534 485 516 485 493 c 3
 485 464 508 446 536 446 c 3xef
147 490 m 3
 147 465 166 446 188 446 c 3
 210 446 229 465 229 490 c 3
 229 515 210 534 188 534 c 3
 166 534 147 515 147 490 c 3
389 161 m 2
 389 108 427 60 471 60 c 3
 546 60 587 118 587 201 c 2xdf80
 588 413 l 1
 564 403 546 398 527 398 c 3
 479 398 435 446 435 490 c 3
 435 560 482 591 534 591 c 3
 584 591 621 558 640 522 c 1
 647 547 648 579 648 611 c 1
 708 593 l 1xef40
 708 515 702 476 659 448 c 1
 659 205 l 2
 659 84 592 -8 472 -8 c 3
 427 -8 385 13 347 55 c 1
 320 23 284 -8 205 -8 c 3
 82 -8 12 89 12 192 c 2
 11 413 l 2
 11 516 78 591 180 591 c 3xef80
 244 591 279 550 279 490 c 3
 279 436 232 398 186 398 c 3
 148 398 109 419 97 460 c 1
 85 438 84 403 84 369 c 2
 84 201 l 2
 84 127 122 60 206 60 c 3
 251 60 317 114 317 161 c 2
 317 580 l 1
 389 580 l 1xdf80
 389 161 l 2
EndSplineSet
EndChar

StartChar: uni0E9D
Encoding: 3741 3741 15
Width: 788
VWidth: 1063
Flags: W
HStem: -8 68<148.422 279.062 437.931 554.068> 396 48<167.458 234.237> 534 57<167.545 233.753> 560 20G<333 405> 859 57<601.277 729.892> 886 57<542.713 628.524>
VStem: 28 72<114.766 459.051> 241 50<449.657 528.361> 333 72<111.962 580> 482 60<849.061 885.127> 602 72<111.19 783.587>
AnchorPoint: "AboveLeft" 530 617 basechar 0
AnchorPoint: "BelowBase" 458 -35 basechar 0
LayerCount: 2
Fore
SplineSet
161 489 m 3xe3e0
 161 465 180 444 201 444 c 3
 222 444 241 465 241 489 c 3
 241 513 222 534 201 534 c 3
 180 534 161 513 161 489 c 3xe3e0
758 889 m 1
 713 866 698 859 654 859 c 3xcbe0
 621 859 599 886 569 886 c 3
 554 886 542 878 542 864 c 3
 542 856 551 850 568 848 c 0
 615 843 674 805 674 762 c 2
 674 205 l 2
 674 84 607 -8 487 -8 c 3
 442 -8 401 13 363 55 c 1
 336 24 291 -8 220 -8 c 3
 98 -8 29 83 28 192 c 2
 27 413 l 2
 27 516 94 591 195 591 c 3xe7e0
 255 591 291 550 291 489 c 3
 291 440 245 396 202 396 c 3
 158 396 123 418 112 460 c 1
 105 447 100 430 100 413 c 2
 100 206 l 2
 100 132 128 60 221 60 c 3
 267 60 333 114 333 161 c 2
 333 580 l 1
 405 580 l 1
 405 161 l 2
 405 108 442 60 486 60 c 3
 564 60 602 118 602 201 c 2
 602 758 l 2
 602 774 571 794 546 799 c 0
 515 805 482 834 482 874 c 3
 482 906 527 943 573 943 c 3xd7e0
 614 943 621 916 657 916 c 3xcbe0
 679 916 702 922 720 935 c 1
 758 889 l 1
EndSplineSet
EndChar

StartChar: uni0E9E
Encoding: 3742 3742 16
Width: 762
VWidth: 1063
Flags: W
HStem: -8 68<104.483 251.606 399.562 494.797> 396 48<64.6428 112.145> 543 48<63.7398 142.326> 560 20G<294 366 530 602>
VStem: 4 72<89.7778 224.375> 5 50<452.596 535.025> 151 60<452.97 535.04> 294 72<103.693 580> 530 72<100.031 580>
AnchorPoint: "AboveBase" 330 617 basechar 0
AnchorPoint: "BelowBase" 403 -35 basechar 0
LayerCount: 2
Fore
SplineSet
449 60 m 259xdb80
 492 60 530 114 530 162 c 2
 530 580 l 1
 602 580 l 1
 602 162 l 2
 602 69 542 -8 450 -8 c 3
 399 -8 366 19 330 55 c 1
 290 16 262 -8 194 -8 c 3
 65 -8 4 39 4 170 c 3xdb80
 4 246 77 334 113 391 c 1
 110 394 104 396 99 396 c 3
 42 396 5 435 5 487 c 3
 5 546 40 591 100 591 c 3xe780
 158 591 211 553 211 491 c 3
 211 431 187 386 166 345 c 0
 148 310 76 202 76 170 c 3
 76 81 110 60 194 60 c 3
 243 60 294 109 294 162 c 2
 294 580 l 1
 366 580 l 1
 366 162 l 2
 366 112 401 60 449 60 c 259xdb80
151 494 m 3
 151 520 132 543 103 543 c 3
 74 543 55 520 55 494 c 3xe780
 55 468 74 444 103 444 c 3
 132 444 151 468 151 494 c 3
EndSplineSet
EndChar

StartChar: uni0E9F
Encoding: 3743 3743 17
Width: 783
VWidth: 1063
Flags: W
HStem: -8 68<147.998 303.007 451.448 569.781> 392 48<101.484 156.178> 543 48<102.143 188.925> 560 20G<345 417> 859 57<617.052 745.392> 886 57<558.713 643.561>
VStem: 42 50<450.055 533.635> 45 72<89.9881 225.019> 198 60<449.557 533.396> 345 72<102.437 580> 498 60<849.061 885.172> 618 72<113.547 781.745>
AnchorPoint: "AboveLeft" 546 617 basechar 0
AnchorPoint: "BelowBase" 475 -35 basechar 0
LayerCount: 2
Fore
SplineSet
145 543 m 3xe2f0
 114 543 92 521 92 492 c 3
 92 463 114 440 145 440 c 3
 176 440 198 463 198 492 c 3
 198 521 176 543 145 543 c 3xe2f0
774 889 m 1
 729 866 714 859 670 859 c 3xc9f0
 636 859 614 886 585 886 c 3
 570 886 558 878 558 864 c 3
 558 856 567 850 584 848 c 0
 624 844 690 805 690 762 c 2
 690 209 l 2
 690 86 623 -8 503 -8 c 3
 449 -8 418 20 378 55 c 1
 342 13 296 -8 240 -8 c 3
 116 -8 45 32 45 157 c 0xc5f0
 45 251 113 329 157 392 c 1
 153 392 149 392 145 392 c 0
 80 392 42 424 42 488 c 3
 42 552 80 591 143 591 c 3xe6f0
 198 591 258 558 258 492 c 3
 258 430 227 375 202 330 c 0
 173 284 117 213 117 150 c 3
 117 76 174 60 240 60 c 3
 293 60 345 105 345 161 c 2
 345 580 l 1
 417 580 l 1
 417 161 l 2
 417 111 454 60 502 60 c 3
 584 60 618 122 618 210 c 2
 618 758 l 2
 618 769 586 794 561 799 c 0
 530 805 498 834 498 874 c 3
 498 913 543 943 589 943 c 3xd5f0
 631 943 636 916 673 916 c 3xc9f0
 695 916 717 922 735 935 c 1
 774 889 l 1
EndSplineSet
EndChar

StartChar: uni0EA1
Encoding: 3745 3745 18
Width: 738
VWidth: 1058
Flags: W
HStem: -8 68<79.7267 176.299 297.414 499.302> 523 68<160 205.889> 560 20G<512 606.5>
VStem: 1 72<66.9341 139.49> 102 72<284.533 522.425> 230 72<211.513 489.249> 552 72<107.502 547.041>
AnchorPoint: "AboveBase" 363 617 basechar 0
AnchorPoint: "BelowBase" 416 -35 basechar 0
LayerCount: 2
Fore
SplineSet
552 475 m 2xde
 552 516 526 556 512 580 c 1
 600 580 l 1xbe
 613 550 623 517 624 475 c 1
 624 163 l 2
 624 44 523 -8 403 -8 c 3
 331 -8 276 8 235 44 c 1
 210 9 174 -8 123 -8 c 3
 53 -8 1 36 1 107 c 3
 1 171 46 193 90 217 c 1
 107 197 113 182 120 151 c 1
 98 141 73 137 73 107 c 3
 73 78 92 60 123 60 c 3
 152 60 185 75 185 105 c 1
 131 238 102 343 102 423 c 3
 102 512 140 591 180 591 c 3
 265 591 302 460 302 345 c 3
 302 274 290 203 264 128 c 1
 276 80 323 60 403 60 c 3
 479 60 552 91 552 162 c 2
 552 475 l 2xde
189 523 m 3xde
 181 523 174 467 174 441 c 3
 174 375 188 307 215 209 c 1
 225 276 230 326 230 363 c 3
 230 411 211 523 189 523 c 3xde
EndSplineSet
EndChar

StartChar: uni0EA2
Encoding: 3746 3746 19
Width: 695
VWidth: 1063
Flags: W
HStem: -8 68<207.226 430.525> 241 68<173.355 319.235> 404 48<208.031 274.334> 534 57<207.731 273.965> 859 57<521.409 649.392> 886 57<462.713 548.41>
VStem: 39 72<125.785 201.771 344.188 487.754> 279 50<456.212 529.631> 402 60<849.061 885.172> 524 72<128.514 780.129>
AnchorPoint: "AboveLeft" 452 617 basechar 0
AnchorPoint: "BelowBase" 410 -35 basechar 0
LayerCount: 2
Fore
SplineSet
241 452 m 3xf3c0
 263 452 279 471 279 493 c 3
 279 515 263 534 241 534 c 3
 219 534 203 515 203 493 c 3
 203 471 219 452 241 452 c 3xf3c0
678 889 m 1
 633 866 618 859 574 859 c 3xfbc0
 541 859 519 886 489 886 c 3
 474 886 462 878 462 864 c 0
 462 856 471 850 488 848 c 0
 528 844 595 806 595 762 c 2
 596 154 l 2
 596 61 451 -8 329 -8 c 3
 194 -8 39 57 39 179 c 3
 39 218 61 249 106 272 c 1
 64 298 39 345 39 391 c 3
 39 513 115 591 229 591 c 3
 297 591 329 537 329 498 c 3
 329 454 285 404 238 404 c 3
 181 404 150 443 145 500 c 1
 119 486 111 433 111 396 c 3
 111 329 185 309 257 309 c 3
 262 309 319 314 319 314 c 1
 327 241 l 1
 271 241 111 224 111 173 c 3
 111 96 246 60 332 60 c 3
 406 60 524 108 524 177 c 2
 524 758 l 2
 524 770 485 795 466 799 c 0
 434 805 402 834 402 874 c 3
 402 913 447 943 493 943 c 3xf7c0
 535 943 540 916 577 916 c 3xfbc0
 599 916 621 922 639 935 c 1
 678 889 l 1
EndSplineSet
EndChar

StartChar: uni0EA3
Encoding: 3747 3747 20
Width: 688
VWidth: 1063
Flags: W
HStem: -8 68<187.716 432.411> 183 48<83.9054 154.557> 523 68<139.668 457.463>
VStem: 17 72<434.879 486.154> 28 50<111.847 176.806> 161 50<111.728 175.928> 504 72<110.282 211.487>
AnchorPoint: "AboveBase" 290 617 basechar 0
AnchorPoint: "BelowBase" 390 -35 basechar 0
LayerCount: 2
Fore
SplineSet
119 105 m 3xee
 140 105 161 126 161 144 c 3
 161 162 140 183 119 183 c 3
 98 183 78 162 78 144 c 3
 78 126 98 105 119 105 c 3xee
504 156 m 3
 504 194 479 224 437 245 c 0
 317 305 148 320 64 378 c 0
 33 398 17 423 17 456 c 3
 17 566 172 591 290 591 c 3
 464 591 544 546 571 478 c 1
 510 436 l 1
 507 437 l 1
 496 503 441 523 285 523 c 3
 213 523 89 508 89 454 c 3xf6
 89 450 102 439 126 425 c 0
 186 391 426 340 503 287 c 0
 551 254 576 212 576 159 c 3
 576 29 420 -8 293 -8 c 3
 170 -8 28 24 28 138 c 3
 28 190 72 231 118 231 c 3
 168 231 211 189 211 136 c 3
 211 110 202 89 186 72 c 1
 210 66 254 60 293 60 c 3
 383 60 504 85 504 156 c 3
EndSplineSet
EndChar

StartChar: uni0EA5
Encoding: 3749 3749 21
Width: 692
VWidth: 1058
Flags: W
HStem: -8 68<438.347 486.442> -8 57<130.228 200.772> 135 48<129.584 200.547> 254 68<109.093 269.283> 523 68<139.713 408.127>
VStem: 4 72<144.229 222.344> 15 72<440.078 492.324> 208 50<56.7544 127.334> 519 72<105.711 410.767>
AnchorPoint: "AboveBase" 297 617 basechar 0
AnchorPoint: "BelowBase" 395 -35 basechar 0
LayerCount: 2
Fore
SplineSet
15 462 m 3xbb80
 15 556 184 591 296 591 c 3
 487 591 591 483 591 292 c 3
 591 151 580 -8 460 -8 c 3xbb80
 426 -8 399 8 379 40 c 0
 353 78 325 182 286 221 c 0
 270 236 223 254 194 254 c 3
 128 254 76 231 76 164 c 3
 76 156 77 150 78 143 c 1
 101 166 127 183 170 183 c 3
 213 183 258 141 258 86 c 3
 258 33 213 -8 171 -8 c 3
 71 -8 4 52 4 160 c 3x7d80
 4 273 100 322 199 322 c 3
 251 322 302 298 334 277 c 0
 370 253 412 137 438 81 c 0
 443 73 446 60 458 60 c 3
 511 60 519 216 519 292 c 3
 519 447 442 523 296 523 c 3
 215 523 87 512 87 465 c 3
 87 444 104 441 129 433 c 1
 125 414 112 389 104 372 c 1
 64 391 15 417 15 462 c 3xbb80
165 49 m 3x7980
 186 49 208 71 208 92 c 3
 208 113 186 135 165 135 c 3
 144 135 123 113 123 92 c 3
 123 71 144 49 165 49 c 3x7980
EndSplineSet
EndChar

StartChar: uni0EA7
Encoding: 3751 3751 22
Width: 650
VWidth: 1063
Flags: W
HStem: -8 68<141.832 388.632> 205 48<68.5755 142.998> 523 68<142.3 387.89>
VStem: 2 60<120.335 198.695> 13 72<423 475.403> 150 50<120.124 198.644> 480 72<137.581 444.32>
AnchorPoint: "AboveBase" 277 617 basechar 0
AnchorPoint: "BelowBase" 369 -35 basechar 0
LayerCount: 2
Fore
SplineSet
200 157 m 3xf6
 200 109 173 85 139 73 c 1
 185 63 208 60 279 60 c 3
 375 60 480 106 480 205 c 2
 480 371 l 2
 480 480 379 523 263 523 c 3
 177 523 95 505 85 423 c 1
 13 423 l 1xee
 13 547 144 591 264 591 c 3
 423 591 552 526 552 367 c 2
 552 206 l 2
 552 60 423 -8 279 -8 c 3
 155 -8 2 23 2 142 c 3
 2 211 49 253 108 253 c 3
 155 253 200 214 200 157 c 3xf6
106 114 m 3
 132 114 150 134 150 160 c 3
 150 185 131 205 106 205 c 3
 81 205 62 185 62 160 c 3xf6
 62 134 80 114 106 114 c 3
EndSplineSet
EndChar

StartChar: uni0EAA
Encoding: 3754 3754 23
Width: 694
VWidth: 1063
Flags: W
HStem: -8 68<437.155 487.938> -8 57<129.278 204.365> 133 48<129.249 204.365> 250 68<103.068 271.133> 359 68<98.4334 372.477> 523 68<111.108 419.086>
VStem: -1 72<140.78 218.402> 15 72<442.266 500.676> 211 50<55.6481 126.611> 519 72<98.6952 427.501>
AnchorPoint: "AboveBase" 295 617 basechar 0
AnchorPoint: "BelowBase" 394 -35 basechar 0
LayerCount: 2
Fore
SplineSet
537 499 m 1xbdc0
 578 453 591 391 591 292 c 3
 591 203 587 132 569 78 c 0
 550 25 523 -8 460 -8 c 3xbdc0
 426 -8 399 8 379 39 c 0
 363 62 346 102 329 150 c 0
 310 206 268 250 194 250 c 3
 126 250 71 228 71 162 c 3
 71 152 72 145 78 139 c 1
 101 164 134 181 170 181 c 3
 216 181 261 141 261 87 c 3
 261 33 215 -8 171 -8 c 3
 68 -8 -1 50 -1 157 c 3x7ec0
 -1 270 97 318 199 318 c 3
 282 318 347 277 377 213 c 0
 397 170 418 122 438 78 c 0
 442 70 447 60 458 60 c 3
 484 60 499 96 504 121 c 0
 514 166 519 222 519 292 c 3
 519 367 517 401 489 440 c 1
 431 386 348 359 242 359 c 3
 143 359 15 385 15 467 c 3
 15 554 141 591 242 591 c 3
 354 591 435 577 482 549 c 1
 493 570 505 591 517 611 c 1
 538 601 560 592 583 583 c 1
 572 555 556 527 537 499 c 1xbdc0
242 523 m 3
 168 523 87 512 87 469 c 3
 87 437 141 427 243 427 c 3
 333 427 389 446 439 492 c 1
 400 516 313 523 242 523 c 3
167 49 m 3x7cc0
 191 49 211 69 211 91 c 259
 211 113 191 133 167 133 c 3
 143 133 123 113 123 91 c 3
 123 69 143 49 167 49 c 3x7cc0
EndSplineSet
EndChar

StartChar: uni0EAB
Encoding: 3755 3755 24
Width: 754
VWidth: 1063
Flags: W
HStem: -8 68<123.537 289.102> 0 21G<538 630> 396 48<64.3963 129.976> 445 48<290.406 348> 523 68<458.002 564.044> 543 48<64.4338 155.448 288.46 353.229>
VStem: 4 72<103.793 228.103> 5 50<454.039 533.33> 165 60<454.689 533.225> 238 50<495.188 539.354> 347 72<110.468 445> 579 72<33.5703 508.707>
AnchorPoint: "AboveBase" 327 617 basechar 0
AnchorPoint: "BelowBase" 436 -35 basechar 0
LayerCount: 2
Fore
SplineSet
288 519 m 3x34f0
 288 502 305 493 323 493 c 3
 336 493 346 495 358 496 c 1
 358 521 347 543 327 543 c 3
 305 543 288 530 288 519 c 3x34f0
55 494 m 3x35f0
 55 467 77 444 110 444 c 3
 143 444 165 467 165 494 c 3
 165 521 143 543 110 543 c 3
 77 543 55 521 55 494 c 3x35f0
579 450 m 2
 579 498 558 523 515 523 c 3
 486 523 455 504 419 469 c 1
 419 150 l 2
 419 70 316 -8 211 -8 c 3
 95 -8 4 46 4 172 c 3xbaf0
 4 249 78 321 111 370 c 2
 130 398 l 1
 130 398 115 396 110 396 c 3
 62 396 5 430 5 489 c 3xb9f0
 5 551 51 591 107 591 c 3
 164 591 225 554 225 491 c 3
 225 437 195 378 179 354 c 0
 148 307 76 210 76 172 c 3
 76 92 136 60 208 60 c 3
 283 60 347 110 347 160 c 2
 348 445 l 1
 286 445 238 457 238 519 c 3
 238 576 276 591 330 591 c 3xb6f0
 375 591 397 574 412 545 c 1
 433 576 471 591 529 591 c 3
 607 591 651 555 651 474 c 2
 651 107 l 2
 651 70 638 34 622 0 c 1
 538 0 l 1x7af0
 557 30 579 68 579 109 c 2
 579 450 l 2
EndSplineSet
EndChar

StartChar: uni0EAD
Encoding: 3757 3757 25
Width: 695
VWidth: 1058
Flags: W
HStem: -8 68<161.514 408.032> 203 48<66.8385 134.699> 287 68<112.457 374.315> 523 68<146.763 416.185>
VStem: 2 72<386.007 474.377> 2 60<126.738 199.057> 139 50<126.58 198.231> 508 72<144.368 377.155>
AnchorPoint: "AboveBase" 291 617 basechar 0
AnchorPoint: "BelowBase" 387 -35 basechar 0
LayerCount: 2
Fore
SplineSet
189 160 m 3xf7
 189 124 173 100 151 85 c 1
 193 69 240 60 306 60 c 3
 405 60 508 119 508 209 c 2
 508 369 l 1
 507 378 l 1
 439 321 356 287 260 287 c 3
 135 287 2 325 2 431 c 3xfb
 2 557 150 591 289 591 c 3
 450 591 580 524 580 370 c 2
 580 209 l 2
 580 69 458 -8 306 -8 c 3
 169 -8 2 39 2 159 c 3
 2 214 47 251 102 251 c 3
 147 251 189 215 189 160 c 3xf7
484 457 m 1
 450 505 351 523 287 523 c 3
 225 523 74 506 74 431 c 3
 74 361 169 355 263 355 c 3
 359 355 438 397 484 457 c 1
139 163 m 259
 139 185 122 203 100 203 c 259
 78 203 62 185 62 163 c 259xf7
 62 142 79 122 100 122 c 259
 122 122 139 141 139 163 c 259
EndSplineSet
EndChar

StartChar: uni0EAE
Encoding: 3758 3758 26
Width: 673
VWidth: 1063
Flags: W
HStem: -8 68<182.321 429.374> 185 48<74.421 149.22> 452 68<306.744 442.604> 523 68<71.8798 213.005>
VStem: -2 72<459.204 518.521> 9 60<110.34 178.496> 155 50<110.171 178.496> 508 72<116.059 218.942>
AnchorPoint: "AboveBase" 289 617 basechar 0
AnchorPoint: "BelowBase" 386 -35 basechar 0
LayerCount: 2
Fore
SplineSet
112 104 m 3xf7
 134 104 155 123 155 145 c 3
 155 167 134 185 112 185 c 3
 90 185 69 167 69 145 c 3
 69 123 90 104 112 104 c 3xf7
110 233 m 3
 166 233 205 189 205 136 c 3
 205 111 197 89 180 71 c 1
 212 63 251 60 287 60 c 3
 389 60 508 88 508 164 c 3
 508 203 480 233 440 257 c 0
 360 305 206 334 62 394 c 0
 26 409 -2 426 -2 477 c 0
 -2 552 58 591 128 591 c 3
 234 591 327 520 374 520 c 3
 445 520 482 576 510 626 c 1
 591 606 l 1
 531 517 476 452 373 452 c 3
 291 452 201 523 129 523 c 3
 93 523 70 517 70 492 c 3xfb
 70 474 80 464 90 459 c 0
 200 408 351 381 462 322 c 0
 527 288 580 240 580 164 c 3
 580 41 422 -8 287 -8 c 3
 158 -8 9 21 9 136 c 3
 9 189 47 233 110 233 c 3
EndSplineSet
EndChar

StartChar: uni0EB0
Encoding: 3760 3760 27
Width: 523
VWidth: 1063
Flags: W
HStem: 33 68<146.469 289.121> 212 48<55.9474 118.642> 270 68<146.469 289.121> 449 48<55.9474 118.642>
VStem: 2 50<143.811 209.097 380.811 446.097> 122 50<143.055 208.97 380.055 445.97> 352 72<163.298 246 400.298 483>
LayerCount: 2
Fore
SplineSet
424 246 m 1
 424 114 337 33 206 33 c 3
 101 33 2 75 2 170 c 3
 2 220 31 260 84 260 c 3
 137 260 172 226 172 177 c 3
 172 154 159 130 144 115 c 1
 160 106 183 101 203 101 c 3
 289 101 352 149 352 246 c 1
 424 246 l 1
87 140 m 3
 106 140 122 158 122 177 c 3
 122 196 106 212 87 212 c 3
 68 212 52 195 52 176 c 3
 52 157 68 140 87 140 c 3
424 483 m 1
 424 351 337 270 206 270 c 3
 101 270 2 312 2 407 c 3
 2 457 31 497 84 497 c 3
 137 497 172 463 172 414 c 3
 172 391 159 367 144 352 c 1
 160 343 183 338 203 338 c 3
 289 338 352 386 352 483 c 1
 424 483 l 1
87 377 m 3
 106 377 122 395 122 414 c 3
 122 433 106 449 87 449 c 3
 68 449 52 432 52 413 c 3
 52 394 68 377 87 377 c 3
EndSplineSet
EndChar

StartChar: uni0EB1
Encoding: 3761 3761 28
Width: 0
VWidth: 1063
Flags: W
HStem: 654 68<-419.228 -229.758> 838 48<-519.593 -453.896>
VStem: -575 50<767.777 833.578> -449 50<766.418 832.738> -146 72<794.651 874>
AnchorPoint: "AboveLeft" -74 617 mark 0
AnchorPoint: "AboveMark" -342 939 basemark 0
AnchorPoint: "AboveBase" -342 617 mark 0
LayerCount: 2
Fore
SplineSet
-342 722 m 3
 -233 722 -146 767 -146 874 c 1
 -74 874 l 1
 -74 714 -210 654 -338 654 c 3
 -438 654 -575 697 -575 785 c 3
 -575 842 -542 886 -489 886 c 259
 -440 886 -399 850 -399 803 c 3
 -399 776 -406 751 -422 738 c 1
 -406 727 -373 722 -342 722 c 3
-449 800 m 3
 -449 819 -468 838 -487 838 c 3
 -506 838 -525 819 -525 800 c 3
 -525 781 -506 762 -487 762 c 3
 -468 762 -449 781 -449 800 c 3
EndSplineSet
EndChar

StartChar: uni0EB2
Encoding: 3762 3762 29
Width: 463
VWidth: 1063
Flags: W
HStem: 0 21G<285 361.733> 312 48<66.4173 132.695> 446 48<84.0469 131.513> 523 68<99.3956 256.251>
VStem: 0 60<365.323 440.125> 138 50<364.385 440.989> 311 72<13.9343 468.663>
LayerCount: 2
Fore
SplineSet
188 405 m 3
 188 353 153 312 105 312 c 3
 36 312 0 357 0 431 c 3
 0 522 90 591 184 591 c 3
 303 591 384 507 384 405 c 2
 383 75 l 2
 383 52 354 0 354 0 c 1
 285 0 l 1
 292 12 311 53 311 76 c 2
 311 405 l 2
 311 469 256 523 186 523 c 3
 155 523 120 514 84 494 c 1
 147 494 188 466 188 405 c 3
99 360 m 259
 121 360 138 380 138 403 c 3
 138 426 121 446 99 446 c 3
 78 446 60 424 60 403 c 3
 60 381 78 360 99 360 c 259
EndSplineSet
EndChar

StartChar: uni0EB4
Encoding: 3764 3764 31
Width: 0
VWidth: 1063
Flags: W
HStem: 625 63<-559.78 -471.417 -350.491 -262.22> 834 68<-539.917 -282.083>
VStem: -669 72<719.317 795.14> -225 72<719.777 795.14>
AnchorPoint: "AboveLeft" -153 617 mark 0
AnchorPoint: "AboveMark" -411 939 basemark 0
AnchorPoint: "AboveBase" -411 617 mark 0
LayerCount: 2
Fore
SplineSet
-470 657 m 3
 -470 637 -484 625 -503 625 c 3
 -552 625 -669 681 -669 757 c 3
 -669 851 -517 902 -411 902 c 3
 -305 902 -153 851 -153 757 c 3
 -153 681 -270 625 -319 625 c 3
 -338 625 -352 637 -352 657 c 3
 -352 675 -339 683 -325 688 c 0
 -283 698 -225 716 -225 757 c 3
 -225 817 -341 834 -411 834 c 3
 -481 834 -597 817 -597 757 c 3
 -597 716 -542 699 -497 688 c 0
 -484 686 -470 675 -470 657 c 3
EndSplineSet
EndChar

StartChar: uni0EB5
Encoding: 3765 3765 32
Width: 0
VWidth: 1063
Flags: W
HStem: 625 63<-559.78 -471.417 -350.583 -286.469> 632 93<-286 -108> 834 68<-539.917 -282.083>
VStem: -669 72<719.317 795.14> -225 72<719.79 795.14>
AnchorPoint: "AboveLeft" -153 617 mark 0
AnchorPoint: "AboveMark" -411 939 basemark 0
AnchorPoint: "AboveBase" -411 617 mark 0
LayerCount: 2
Fore
SplineSet
-470 657 m 3xb8
 -470 637 -484 625 -503 625 c 3xb8
 -552 625 -669 681 -669 757 c 3
 -669 851 -517 902 -411 902 c 3
 -305 902 -153 851 -153 757 c 3
 -153 737 -160 718 -173 700 c 1
 -154 706 -122 725 -108 725 c 3
 -94 725 -83 708 -83 694 c 3
 -83 681 -88 673 -98 668 c 0
 -142 645 -213 632 -286 632 c 1x78
 -296 628 -306 625 -319 625 c 3
 -338 625 -352 637 -352 657 c 3
 -352 675 -340 683 -326 688 c 0
 -284 698 -225 716 -225 757 c 3
 -225 817 -341 834 -411 834 c 3
 -481 834 -597 817 -597 757 c 3
 -597 716 -542 699 -497 688 c 0
 -484 686 -470 675 -470 657 c 3xb8
EndSplineSet
EndChar

StartChar: uni0EB6
Encoding: 3766 3766 33
Width: 0
VWidth: 1063
Flags: W
HStem: 625 63<-559.78 -471.417 -350.491 -262.22> 696 92<-443.97 -378.03> 834 68<-539.917 -282.083>
VStem: -669 72<719.317 795.14> -450 78<700.776 783.224> -225 72<719.777 795.14>
CounterMasks: 1 1c
AnchorPoint: "AboveLeft" -153 617 mark 0
AnchorPoint: "AboveMark" -411 939 basemark 0
AnchorPoint: "AboveBase" -411 617 mark 0
LayerCount: 2
Fore
SplineSet
-470 657 m 3
 -470 637 -484 625 -503 625 c 3
 -552 625 -669 681 -669 757 c 3
 -669 851 -517 902 -411 902 c 3
 -305 902 -153 851 -153 757 c 3
 -153 681 -270 625 -319 625 c 3
 -338 625 -352 637 -352 657 c 3
 -352 675 -339 683 -325 688 c 0
 -283 698 -225 716 -225 757 c 3
 -225 817 -341 834 -411 834 c 3
 -481 834 -597 817 -597 757 c 3
 -597 716 -542 699 -497 688 c 0
 -484 686 -470 675 -470 657 c 3
-411 788 m 3
 -389 788 -372 766 -372 742 c 259
 -372 718 -389 696 -411 696 c 259
 -433 696 -450 718 -450 742 c 3
 -450 766 -433 788 -411 788 c 3
EndSplineSet
EndChar

StartChar: uni0EB7
Encoding: 3767 3767 34
Width: 0
VWidth: 1063
Flags: W
HStem: 625 63<-559.78 -471.417 -350.583 -286.469> 632 93<-286 -108> 696 92<-443.97 -378.03> 834 68<-539.917 -282.083>
VStem: -669 72<719.317 795.14> -450 78<700.776 783.224> -225 72<719.79 795.14>
CounterMasks: 1 0e
AnchorPoint: "AboveLeft" -153 617 mark 0
AnchorPoint: "AboveMark" -411 939 basemark 0
AnchorPoint: "AboveBase" -411 617 mark 0
LayerCount: 2
Fore
SplineSet
-411 788 m 3x3e
 -389 788 -372 766 -372 742 c 259
 -372 718 -389 696 -411 696 c 259
 -433 696 -450 718 -450 742 c 3
 -450 766 -433 788 -411 788 c 3x3e
-470 657 m 3
 -470 637 -484 625 -503 625 c 3x9e
 -552 625 -669 681 -669 757 c 3
 -669 851 -517 902 -411 902 c 3
 -305 902 -153 851 -153 757 c 3
 -153 737 -160 718 -173 700 c 1
 -154 706 -122 725 -108 725 c 3
 -94 725 -83 708 -83 694 c 3
 -83 681 -88 673 -98 668 c 0
 -142 645 -213 632 -286 632 c 1x5e
 -296 628 -306 625 -319 625 c 3
 -338 625 -352 637 -352 657 c 3
 -352 675 -340 683 -326 688 c 0
 -284 698 -225 716 -225 757 c 3
 -225 817 -341 834 -411 834 c 3
 -481 834 -597 817 -597 757 c 3
 -597 716 -542 699 -497 688 c 0x9e
 -484 686 -470 675 -470 657 c 3
EndSplineSet
EndChar

StartChar: uni0EB8
Encoding: 3768 3768 35
Width: 0
VWidth: 1063
Flags: W
HStem: -181 38<-344.368 -304.247> -98 28<-343.123 -294.341>
VStem: -395 50<-142.125 -98.4938> -304 72<-302.288 -259> -292 60<-142.504 -99.7989>
AnchorPoint: "BelowMark" -319 -52 mark 0
AnchorPoint: "BelowBase" -319 -35 mark 0
LayerCount: 2
Fore
SplineSet
-292 -120 m 3xe8
 -292 -132 -305 -143 -319 -143 c 3
 -333 -143 -345 -132 -345 -120 c 259
 -345 -108 -333 -98 -319 -98 c 3
 -305 -98 -292 -108 -292 -120 c 3xe8
-395 -126 m 3
 -395 -158 -362 -181 -320 -181 c 3
 -315 -181 -308 -180 -304 -178 c 1
 -304 -259 l 2
 -304 -268 -332 -313 -332 -313 c 1
 -252 -313 l 1
 -252 -313 -232 -275 -232 -259 c 2xf0
 -232 -148 l 2
 -232 -91 -256 -70 -319 -70 c 3
 -365 -70 -395 -88 -395 -126 c 3
EndSplineSet
EndChar

StartChar: uni0EB9
Encoding: 3769 3769 36
Width: 0
VWidth: 1063
Flags: W
HStem: -305 54<-323.107 -284.106> -177 38<-431.498 -397.167> -98 28<-430.199 -386.893>
VStem: -482 50<-138.526 -98.5814> -397 72<-249.299 -223> -385 60<-138.896 -99.0881> -283 72<-249.572 -219>
AnchorPoint: "BelowMark" -304 -52 mark 0
AnchorPoint: "BelowBase" -304 -35 mark 0
LayerCount: 2
Fore
SplineSet
-385 -118 m 259xf6
 -385 -130 -396 -139 -409 -139 c 3
 -422 -139 -432 -130 -432 -118 c 259
 -432 -106 -422 -98 -409 -98 c 3
 -396 -98 -385 -106 -385 -118 c 259xf6
-325 -141 m 2
 -325 -87 -345 -70 -410 -70 c 3
 -454 -70 -482 -90 -482 -125 c 3
 -482 -158 -450 -177 -410 -177 c 2
 -397 -177 l 1
 -397 -224 l 2
 -397 -272 -353 -305 -301 -305 c 3
 -238 -305 -211 -269 -211 -219 c 2
 -210 -75 l 1
 -283 -75 l 1
 -283 -219 l 2
 -283 -233 -289 -251 -301 -251 c 3
 -311 -251 -325 -235 -325 -223 c 2xfa
 -325 -141 l 2
EndSplineSet
EndChar

StartChar: uni0EBA
Encoding: 3770 3770 37
Width: 0
VWidth: 1063
Flags: W
HStem: -221 145<-178.5 -75.625>
VStem: -200 145<-199.875 -97>
AnchorPoint: "BelowMark" -127 -52 mark 0
AnchorPoint: "BelowBase" -127 -33 mark 0
LayerCount: 2
Fore
SplineSet
-127 -76 m 259
 -86 -76 -55 -107 -55 -148 c 3
 -55 -189 -86 -221 -127 -221 c 259
 -168 -221 -200 -189 -200 -148 c 3
 -200 -108 -167 -76 -127 -76 c 259
EndSplineSet
EndChar

StartChar: uni0EBB
Encoding: 3771 3771 38
Width: 0
VWidth: 1063
Flags: W
HStem: 618 48<-557.426 -489.027> 783 68<-457.369 -254.026>
VStem: -612 50<670.857 738.642> -484 50<670.809 739.657> -157 72<627 697.972>
AnchorPoint: "AboveLeft" -85 617 mark 0
AnchorPoint: "AboveMark" -363 939 basemark 0
AnchorPoint: "AboveBase" -368 617 mark 0
LayerCount: 2
Fore
SplineSet
-523 618 m 3
 -576 618 -612 661 -612 717 c 3
 -612 809 -466 851 -363 851 c 3
 -211 851 -85 778 -85 627 c 1
 -157 627 l 1
 -157 738 -267 783 -368 783 c 3
 -415 783 -435 779 -460 769 c 1
 -444 753 -434 724 -434 699 c 3
 -434 659 -477 618 -523 618 c 3
-484 705 m 3
 -484 726 -502 744 -523 744 c 3
 -544 744 -562 726 -562 705 c 3
 -562 684 -544 666 -523 666 c 3
 -502 666 -484 684 -484 705 c 3
EndSplineSet
EndChar

StartChar: uni0EBC
Encoding: 3772 3772 39
Width: 0
VWidth: 1063
Flags: W
HStem: -255 48<-567.828 -496.594> -249 68<-355.993 -274.806> -125 57<-567.406 -497.044>
VStem: -623 50<-201.285 -130.5> -491 50<-201.403 -167> -232 51<-118.53 -82.3725>
AnchorPoint: "BelowMark" -328 -284 basemark 0
AnchorPoint: "BelowBase" -328 -35 mark 0
LayerCount: 2
Fore
SplineSet
-623 -159 m 0xbc
 -623 -106 -583 -68 -530 -68 c 3
 -477 -68 -426 -92 -384 -135 c 0
 -356 -164 -328 -181 -309 -181 c 3
 -263 -181 -245 -88 -232 -47 c 1
 -181 -88 l 1
 -202 -159 -228 -249 -304 -249 c 3x7c
 -351 -249 -401 -216 -441 -167 c 1
 -441 -207 -485 -255 -530 -255 c 3
 -585 -255 -623 -217 -623 -159 c 0xbc
-532 -207 m 259xbc
 -510 -207 -491 -188 -491 -166 c 3
 -491 -144 -510 -125 -532 -125 c 3
 -554 -125 -573 -144 -573 -166 c 3
 -573 -188 -554 -207 -532 -207 c 259xbc
EndSplineSet
EndChar

StartChar: uni0EBD
Encoding: 3773 3773 40
Width: 612
VWidth: 1063
Flags: W
HStem: -195 68<109.477 376.724> -35 57<100.433 206> 55 48<156.082 217.589> 147 57<121.005 217.014> 448 68<266.45 381.895> 523 68<70.3722 182.34>
VStem: -3 72<455.435 520.292> 6 72<-99.9388 -44.3784 43.9744 106.588> 218 50<104.52 145.137> 464 72<-42.6603 182.877>
LayerCount: 2
Fore
SplineSet
218 125 m 3xfcc0
 218 138 204 147 187 147 c 3
 170 147 156 138 156 125 c 3
 156 112 170 103 187 103 c 3
 204 103 218 112 218 125 c 3xfcc0
112 523 m 3
 88 523 69 517 69 491 c 3xfec0
 69 474 71 462 77 459 c 0
 188 397 338 374 436 298 c 0
 483 262 536 179 536 90 c 3
 536 -116 443 -195 249 -195 c 3
 118 -195 6 -181 6 -66 c 3
 6 -38 18 -21 53 0 c 1
 31 4 6 35 6 76 c 3
 6 150 86 204 158 204 c 3
 221 204 268 175 268 124 c 3
 268 81 234 55 190 55 c 3
 145 55 117 73 110 113 c 1
 96 107 78 90 78 83 c 3
 78 43 123 22 206 22 c 1
 214 15 l 1
 214 -13 l 2
 214 -28 183 -35 121 -35 c 1
 95 -43 78 -57 78 -72 c 3xfdc0
 78 -103 145 -127 250 -127 c 3
 406 -127 464 -71 464 65 c 3
 464 154 437 221 382 258 c 0
 313 305 143 347 53 394 c 0
 28 407 -3 428 -3 476 c 3xfec0
 -3 544 50 591 118 591 c 3
 192 591 288 516 318 516 c 3
 387 516 419 572 443 623 c 1
 513 603 l 1
 461 514 428 448 318 448 c 3
 258 448 172 523 112 523 c 3
EndSplineSet
EndChar

StartChar: uni0EC0
Encoding: 3776 3776 41
Width: 303
VWidth: 1063
Flags: W
HStem: -8 48<87.6881 166.69> 132 48<91.5144 166.321> 503 73<154 227> 523 68<106.914 225.761>
VStem: 19 72<172 507.908> 19 60<48.4233 123.773> 175 50<49.1336 122.866>
LayerCount: 2
Fore
SplineSet
225 86 m 3xda
 225 25 178 -8 115 -8 c 3
 68 -8 19 35 19 107 c 2xd6
 19 440 l 2
 19 529 56 591 147 591 c 3xda
 179 591 200 584 227 576 c 1
 227 503 l 1xea
 201 511 177 523 145 523 c 3
 103 523 91 482 91 433 c 2
 91 172 l 1
 99 178 115 180 121 180 c 3
 182 180 225 147 225 86 c 3xda
127 40 m 3
 153 40 175 62 175 86 c 3
 175 110 153 132 127 132 c 3
 101 132 79 110 79 86 c 3
 79 62 101 40 127 40 c 3
EndSplineSet
EndChar

StartChar: uni0EC2
Encoding: 3778 3778 43
Width: 408
VWidth: 1063
Flags: W
HStem: -8 48<163.341 234.53> 122 48<170.222 234.821> 715 68<171.061 290.356> 860 68<-33.083 20.7005>
VStem: -106 72<814.382 859.545> 98 72<163 491.492> 98 60<46.7805 116.922> 240 50<45.3055 116.695>
DStem2: 64 889 18 841 0.781252 -0.624215<-48.8562 190.653> 126 516 250 529 0.861631 0.507536<8.64986 84.7231>
LayerCount: 2
Fore
SplineSet
196 170 m 3xfd
 248 170 290 123 290 81 c 3
 290 39 259 -8 194 -8 c 3
 142 -8 98 28 98 81 c 2xfb
 98 449 l 2
 98 476 110 507 126 516 c 2
 199 559 l 1
 175 564 150 575 126 594 c 0
 51 652 -24 711 -82 785 c 0
 -98 806 -106 824 -106 838 c 3
 -106 898 -78 928 -22 928 c 3
 2 928 30 915 64 889 c 0
 96 864 163 808 187 794 c 0
 197 788 210 783 224 783 c 3
 251 783 268 794 290 799 c 1
 294 728 l 1
 270 723 242 715 224 715 c 3
 202 715 180 722 159 736 c 0
 109 770 63 805 18 841 c 0
 2 854 -16 860 -22 860 c 3
 -26 860 -34 855 -34 845 c 0
 -34 841 -33 829 -27 822 c 0
 34 755 99 697 171 641 c 0
 185 630 213 619 252 607 c 0
 279 599 293 588 293 576 c 3
 293 550 282 550 250 529 c 2
 202 499 l 2
 178 483 170 467 170 449 c 2
 170 163 l 1
 174 168 186 170 196 170 c 3xfd
199 40 m 3
 221 40 240 59 240 81 c 3
 240 103 221 122 199 122 c 3
 177 122 158 103 158 81 c 3
 158 59 177 40 199 40 c 3
EndSplineSet
EndChar

StartChar: uni0EC3
Encoding: 3779 3779 44
Width: 280
VWidth: 1057
Flags: W
HStem: -8 48<99.7121 159.922> 114 48<108.151 159.922> 555 32<74.7188 84.707> 665 57<27.0062 117.866> 903 68<46.9317 191.158>
VStem: -58 60<746.759 861.727> 36 72<159 494.941> 36 60<42.7474 111.253> 121 60<727.771 789.23> 164 50<42.8972 110.39> 235 60<709.247 860.831>
LayerCount: 2
Fore
SplineSet
164 77 m 3xfd60
 164 96 148 114 130 114 c 3
 112 114 96 96 96 77 c 3
 96 58 112 40 130 40 c 3
 148 40 164 58 164 77 c 3xfd60
128 162 m 3
 175 162 214 121 214 74 c 3
 214 31 175 -8 128 -8 c 3
 62 -8 36 49 36 89 c 2xfd60
 36 413 l 2
 36 474 78 546 134 576 c 1
 113 565 94 558 78 555 c 1
 63 587 l 1
 183 659 235 699 235 796 c 3
 235 856 188 903 123 903 c 3
 61 903 2 866 2 802 c 3
 2 760 35 722 76 722 c 3
 98 722 121 735 121 755 c 3
 121 778 101 792 82 796 c 1
 116 841 l 1
 153 826 181 803 181 761 c 3
 181 697 133 665 66 665 c 3
 -6 665 -58 735 -58 813 c 3
 -58 904 14 971 104 971 c 3
 219 971 295 911 295 800 c 3
 295 731 272 686 227 641 c 1
 234 644 241 647 250 650 c 1
 268 621 l 1
 203 575 161 543 141 524 c 0
 117 501 108 471 108 433 c 2
 108 159 l 1xfea0
 113 160 120 162 128 162 c 3
EndSplineSet
EndChar

StartChar: uni0EC4
Encoding: 3780 3780 45
Width: 346
VWidth: 1063
Flags: W
HStem: -8 48<145.195 214.01> 119 48<152.27 214.289> 608 68<143.43 224.212>
VStem: 41 66<635.032 766.59> 80 72<159 470.571> 80 60<45.9196 114.633> 219 50<45.5238 114.014> 225 60<564.982 607.466>
DStem2: 112 507 164 465 0.83043 0.557124<-8.5827 142.192>
LayerCount: 2
Fore
SplineSet
179 40 m 3xe6
 200 40 219 59 219 80 c 3
 219 101 200 119 179 119 c 3
 158 119 140 101 140 80 c 3
 140 59 158 40 179 40 c 3xe6
179 -8 m 3
 120 -8 80 27 80 80 c 2xe6
 80 430 l 2xe8
 80 467 90 492 112 507 c 2
 158 538 l 2
 184 555 225 570 225 595 c 3
 225 604 220 608 206 608 c 3
 159 608 99 560 73 519 c 1
 3 524 l 1
 26 575 41 596 41 639 c 3
 41 716 5 843 -46 894 c 1
 -6 963 l 1
 52 886 107 759 107 652 c 3
 107 646 107 640 107 634 c 1xf1
 132 655 172 676 210 676 c 3
 252 676 285 638 285 595 c 3
 285 555 261 530 243 518 c 2
 164 465 l 2
 152 457 152 452 152 430 c 2
 152 159 l 1xe9
 157 164 169 167 180 167 c 3
 228 167 269 128 269 80 c 3
 269 32 239 -8 179 -8 c 3
EndSplineSet
EndChar

StartChar: uni0EC6
Encoding: 3782 3782 46
Width: 597
VWidth: 1063
Flags: W
HStem: -205 68<164.15 345.03> 258 57<147.287 211.699> 389 48<145.859 212.543> 457 68<219.318 294.374> 523 68<94.5279 173.674 339.212 417.35>
VStem: -1 72<353.473 500.304> 92 50<352 385.386> 216 50<318.953 384.754> 425 72<-78.8633 516.39>
LayerCount: 2
Fore
SplineSet
175 258 m 3xef80
 61 258 -1 328 -1 436 c 3
 -1 530 58 591 132 591 c 3xef80
 181 591 235 525 252 525 c 3xf780
 285 525 330 591 379 591 c 3
 461 591 497 545 497 467 c 2
 497 -42 l 2
 497 -146 362 -205 247 -205 c 3
 161 -205 103 -165 62 -119 c 1
 105 -42 l 1
 139 -95 159 -137 247 -137 c 3
 308 -137 425 -98 425 -37 c 2
 425 437 l 2
 425 505 415 523 380 523 c 3xef80
 352 523 299 457 253 457 c 3xf780
 193 457 177 523 130 523 c 3
 103 523 71 490 71 419 c 3
 71 385 85 359 92 352 c 1
 92 355 92 358 92 361 c 3
 92 403 124 437 175 437 c 3
 230 437 266 397 266 351 c 3
 266 301 231 258 175 258 c 3xef80
216 352 m 3
 216 372 199 389 179 389 c 3
 159 389 142 372 142 352 c 3
 142 332 159 315 179 315 c 3
 199 315 216 332 216 352 c 3
EndSplineSet
EndChar

StartChar: uni0EC8
Encoding: 3784 3784 47
Width: 0
VWidth: 1063
Flags: W
HStem: 641 200<-261 -189>
VStem: -261 72<641 841>
AnchorPoint: "AboveLeft" -129 617 mark 0
AnchorPoint: "AboveMark" -225 641 mark 0
AnchorPoint: "AboveBase" -225 617 mark 0
LayerCount: 2
Fore
SplineSet
-189 641 m 1
 -261 641 l 1
 -261 841 l 1
 -189 841 l 1
 -189 641 l 1
EndSplineSet
EndChar

StartChar: uni0EC9
Encoding: 3785 3785 48
Width: 0
VWidth: 1063
Flags: W
HStem: 656 68<-362 -239.117> 798 48<-474.048 -421.91>
VStem: -525 50<757.074 797.246> -420 72<733.637 796.461>
AnchorPoint: "AboveLeft" -83 617 mark 0
AnchorPoint: "AboveMark" -315 641 mark 0
AnchorPoint: "AboveBase" -315 617 mark 0
LayerCount: 2
Fore
SplineSet
-438 846 m 3
 -391 846 -348 811 -348 766 c 3
 -348 748 -351 742 -362 724 c 1
 -231 724 -173 775 -162 811 c 2
 -148 859 l 1
 -127 840 -105 822 -83 803 c 1
 -97 765 l 2
 -114 717 -214 656 -402 656 c 2
 -548 656 l 1
 -548 692 -511 703 -467 720 c 0
 -449 727 -420 743 -420 767 c 3
 -420 785 -430 798 -449 798 c 3
 -467 798 -475 787 -475 766 c 1
 -486 760 -505 754 -524 748 c 1
 -524 748 -525 759 -525 764 c 3
 -525 804 -491 846 -438 846 c 3
EndSplineSet
EndChar

StartChar: uni0ECA
Encoding: 3786 3786 49
Width: 0
VWidth: 1063
Flags: W
HStem: 762 68<-373.907 -302.41 -216.532 -144.692>
VStem: -447 72<694.875 757.871> -142 72<733 755.04> -46 72<738.384 822.962>
AnchorPoint: "AboveLeft" 26 617 mark 0
AnchorPoint: "AboveMark" -259 641 mark 0
AnchorPoint: "AboveBase" -259 617 mark 0
LayerCount: 2
Fore
SplineSet
-10 825 m 3
 15 825 26 810 26 791 c 27
 26 699 -55 632 -148 632 c 3
 -165 632 -180 651 -182 669 c 0
 -182 678 -180 686 -172 689 c 0
 -159 694 -142 715 -142 733 c 3
 -142 749 -168 762 -191 762 c 3
 -199 762 -213 748 -229 722 c 2
 -259 672 l 1
 -289 721 l 2
 -305 746 -319 762 -327 762 c 3
 -353 762 -375 752 -375 734 c 3
 -375 711 -360 697 -345 689 c 0
 -335 684 -330 674 -330 662 c 3
 -330 646 -345 629 -362 629 c 3
 -368 629 -374 630 -380 634 c 0
 -426 665 -447 678 -447 734 c 3
 -447 794 -399 830 -328 830 c 3
 -306 830 -276 797 -260 781 c 1
 -243 803 -217 830 -187 830 c 3
 -126 830 -70 787 -70 733 c 1
 -54 752 -46 790 -46 801 c 3
 -46 815 -30 825 -10 825 c 3
EndSplineSet
EndChar

StartChar: uni0ECB
Encoding: 3787 3787 50
Width: 0
VWidth: 1063
Flags: W
HStem: 738 68<-302 -221 -149 -68>
VStem: -221 72<653 738 806 892>
AnchorPoint: "AboveLeft" -48 617 mark 0
AnchorPoint: "AboveMark" -185 641 mark 0
AnchorPoint: "AboveBase" -185 617 mark 0
LayerCount: 2
Fore
SplineSet
-149 653 m 1
 -221 653 l 1
 -221 738 l 1
 -302 738 l 1
 -302 806 l 1
 -221 806 l 1
 -221 892 l 1
 -149 892 l 1
 -149 806 l 1
 -68 806 l 1
 -68 738 l 1
 -149 738 l 1
 -149 653 l 1
EndSplineSet
EndChar

StartChar: uni0ECC
Encoding: 3788 3788 51
Width: 0
VWidth: 1063
Flags: W
HStem: 635 48<-263.068 -196.377>
VStem: -316 50<686.358 746.149> -194 50<685.971 746.296>
AnchorPoint: "AboveLeft" 7 617 mark 0
AnchorPoint: "AboveMark" -230 641 mark 0
AnchorPoint: "AboveBase" -230 617 mark 0
LayerCount: 2
Fore
SplineSet
-230 683 m 3
 -210 683 -194 698 -194 716 c 3
 -194 734 -210 749 -230 749 c 3
 -250 749 -266 734 -266 716 c 3
 -266 698 -250 683 -230 683 c 3
-237 635 m 3
 -276 635 -316 665 -316 715 c 3
 -316 771 -264 801 -214 807 c 0
 -133 816 -76 843 -62 897 c 2
 -50 945 l 1
 -32 925 -12 908 7 889 c 1
 2 869 l 2
 -13 809 -86 779 -168 764 c 1
 -153 758 -144 743 -144 715 c 3
 -144 663 -190 635 -237 635 c 3
EndSplineSet
EndChar

StartChar: uni0ECD
Encoding: 3789 3789 52
Width: 0
VWidth: 1063
Flags: W
HStem: 670 57<-335.866 -262.721> 811 57<-335.866 -262.822>
VStem: -402 60<732.38 804.682> -258 60<732.03 806.176>
AnchorPoint: "AboveLeft" -138 617 mark 0
AnchorPoint: "AboveMark" -300 622 mark 0
AnchorPoint: "AboveMark" -300 939 basemark 0
AnchorPoint: "AboveBase" -300 617 mark 0
LayerCount: 2
Fore
SplineSet
-402 769 m 3
 -402 826 -357 868 -300 868 c 3
 -244 868 -198 826 -198 769 c 3
 -198 713 -244 670 -300 670 c 259
 -357 670 -402 713 -402 769 c 3
-300 811 m 3
 -323 811 -342 792 -342 769 c 259
 -342 746 -323 727 -300 727 c 3
 -275 727 -258 745 -258 769 c 259
 -258 793 -276 811 -300 811 c 3
EndSplineSet
EndChar

StartChar: uni0ED0
Encoding: 3792 3792 53
Width: 646
VWidth: 1063
Flags: W
HStem: -8 68<187.314 378.173> 523 68<193.877 385.201>
VStem: 22 72<163.278 412.448> 475 72<168.241 427.384>
LayerCount: 2
Fore
SplineSet
285 591 m 3
 467 591 547 486 547 292 c 3
 547 113 453 -8 285 -8 c 3
 110 -8 22 100 22 292 c 3
 22 480 109 591 285 591 c 3
285 60 m 3
 415 60 475 153 475 292 c 3
 475 444 425 523 285 523 c 3
 157 523 94 435 94 292 c 3
 94 143 151 60 285 60 c 3
EndSplineSet
EndChar

StartChar: uni0ED1
Encoding: 3793 3793 54
Width: 657
VWidth: 1063
Flags: W
HStem: -8 21G<181 241> 166 68<173.81 293.938> 299 48<227.729 294.961> 523 68<168.635 378.437>
VStem: 11 72<275.344 440.842> 175 50<236.652 295.979> 297 60<237.32 296.494> 486 72<212.478 416.198>
LayerCount: 2
Fore
SplineSet
200 219 m 1
 182 233 175 249 175 273 c 3
 175 320 216 347 261 347 c 3
 316 347 357 321 357 267 c 3
 357 200 290 166 236 166 c 3
 93 166 11 232 11 362 c 3
 11 516 116 591 269 591 c 3
 433 591 558 494 558 328 c 3
 558 231 526 166 484 124 c 0
 420 56 293 -8 189 -8 c 3
 173 -8 154 -7 142 -3 c 1
 142 5 176 25 181 27 c 0
 271 68 356 97 426 162 c 0
 461 195 486 241 486 305 c 3
 486 447 412 523 261 523 c 3
 151 523 83 456 83 352 c 3
 83 273 129 233 200 219 c 1
261 234 m 3
 281 234 297 249 297 267 c 3
 297 285 281 299 261 299 c 3
 241 299 225 285 225 267 c 3
 225 249 241 234 261 234 c 3
EndSplineSet
EndChar

StartChar: uni0ED2
Encoding: 3794 3794 55
Width: 650
VWidth: 1063
Flags: W
HStem: -8 68<192.116 390.53> 182 48<386.437 457.284>
VStem: 11 72<164.125 347.903> 335 50<124.886 178.752> 459 60<126.02 178.924>
LayerCount: 2
Fore
SplineSet
393 82 m 1
 360 95 335 104 335 148 c 3
 335 198 377 230 436 230 c 3
 477 230 519 198 519 156 c 3
 519 50 404 -8 292 -8 c 3
 115 -8 11 94 11 269 c 3
 11 366 67 418 130 469 c 0
 240 559 385 632 448 691 c 0
 464 706 478 725 491 746 c 1
 499 743 503 719 503 706 c 3
 503 664 492 658 467 633 c 0
 421 587 286 508 165 414 c 0
 124 382 83 337 83 266 c 3
 83 132 162 60 307 60 c 3
 347 60 363 66 393 82 c 1
422 122 m 3
 445 122 459 137 459 152 c 3
 459 167 445 182 422 182 c 3
 399 182 385 167 385 152 c 3
 385 137 399 122 422 122 c 3
EndSplineSet
EndChar

StartChar: uni0ED3
Encoding: 3795 3795 56
Width: 665
VWidth: 1063
Flags: W
HStem: -8 68<324.697 441.103> -8 57<54.5716 114.128> 102 48<53.8006 114.04> 428 68<187.445 221.084> 738 68<203 289.556>
VStem: 3 50<51.2595 99.9045> 102 72<215.796 423.278> 151 72<722.008 761> 231 72<214.52 425.188> 486 72<125.86 480.187>
LayerCount: 2
Fore
SplineSet
115 76 m 3x7cc0
 115 91 100 102 84 102 c 3
 68 102 53 91 53 76 c 3
 53 61 68 49 84 49 c 3
 100 49 115 61 115 76 c 3x7cc0
202 428 m 3
 181 428 174 336 174 298 c 3x3ec0
 174 260 191 225 204 198 c 1
 217 236 231 287 231 331 c 3
 231 364 226 428 202 428 c 3
522 637 m 3
 522 617 492 610 463 610 c 1
 463 621 460 628 455 631 c 0
 394 667 318 707 264 727 c 0
 247 733 235 738 230 738 c 3
 227 738 223 735 223 734 c 3
 223 732 235 726 239 724 c 0
 331 678 465 610 513 536 c 0
 554 472 558 385 558 285 c 3
 558 106 509 -8 383 -8 c 3xbdc0
 324 -8 248 42 212 83 c 1
 187 41 147 -8 95 -8 c 3
 45 -8 3 24 3 71 c 3
 3 117 42 150 90 150 c 3
 114 150 144 139 154 119 c 1
 166 138 l 1
 131 178 102 230 102 305 c 3x7ec0
 102 390 129 496 205 496 c 3
 274 496 303 402 303 332 c 3
 303 252 277 186 249 140 c 1
 279 102 349 60 403 60 c 3
 467 60 486 196 486 280 c 3
 486 389 482 450 454 503 c 0
 417 572 296 622 208 671 c 0
 185 684 151 714 151 745 c 3xbdc0
 151 777 186 806 220 806 c 3
 253 806 268 797 285 788 c 0
 356 751 428 718 496 678 c 0
 505 672 522 653 522 637 c 3
EndSplineSet
EndChar

StartChar: uni0ED4
Encoding: 3796 3796 57
Width: 695
VWidth: 1063
Flags: W
HStem: -8 68<141.942 252.839> -8 57<420.334 500.801> 90 57<413.12 501.252> 171 48<415.202 495.242> 274 57<414.017 495.951>
VStem: 18 72<138.26 395.925> 280 72<127.318 223.688> 497 50<223.437 270.726> 502 72<51.2159 89.3445> 510 52<628.13 700.516>
DStem2: 194 530 191 468 0.970415 0.241443<-80.0246 306.587>
LayerCount: 2
Fore
SplineSet
370 127 m 1xbf
 396 137 439 147 472 147 c 3
 530 147 574 120 574 66 c 3
 574 12 523 -8 466 -8 c 3x7e80
 420 -8 362 25 336 51 c 1
 283 28 223 -8 168 -8 c 3
 52 -8 18 145 18 270 c 0
 18 446 58 496 194 530 c 2
 403 582 l 2
 456 596 510 621 510 689 c 3
 510 700 508 714 503 729 c 1
 530 714 562 687 562 651 c 3xbe40
 562 580 500 551 430 534 c 0
 337 510 268 493 191 468 c 0
 115 440 90 377 90 270 c 3
 90 198 115 60 182 60 c 3
 201 60 267 86 299 100 c 1
 290 115 280 146 280 172 c 3
 280 279 347 331 446 331 c 3
 490 331 547 306 547 251 c 3
 547 198 500 171 452 171 c 3
 400 171 383 189 363 226 c 1
 356 206 352 188 352 173 c 3
 352 154 358 138 370 127 c 1xbf
497 249 m 3x3f
 497 264 479 274 455 274 c 3
 431 274 413 264 413 249 c 3
 413 234 431 219 455 219 c 3
 479 219 497 234 497 249 c 3x3f
467 49 m 3x7e80
 485 49 502 59 502 70 c 3
 502 84 490 90 470 90 c 3
 451 90 432 88 412 80 c 1
 424 65 441 49 467 49 c 3x7e80
EndSplineSet
EndChar

StartChar: uni0ED5
Encoding: 3797 3797 58
Width: 717
VWidth: 1063
Flags: W
HStem: -8 68<141.942 252.839> -8 57<420.334 500.801> 90 57<413.12 501.252> 171 48<415.202 495.242> 274 57<414.017 495.951> 613 48<237.522 322.478>
VStem: 18 72<138.26 395.925> 186 50<561.158 608.897> 280 72<127.318 223.688> 324 50<575.158 608.761> 497 50<223.437 270.726> 502 72<51.2159 89.3445> 510 52<628.13 700.516>
DStem2: 194 530 191 468 0.970415 0.241443<-80.0246 14.5516 185.54 306.587>
LayerCount: 2
Back
SplineSet
370 127 m 1xbfa0
 396 137 439 147 472 147 c 3
 530 147 574 120 574 66 c 3
 574 12 523 -8 466 -8 c 3x7f90
 420 -8 362 25 336 51 c 1
 283 28 223 -8 168 -8 c 3
 52 -8 18 145 18 270 c 0
 18 446 58 496 194 530 c 2
 403 582 l 2
 456 596 510 621 510 689 c 3
 510 700 508 714 503 729 c 1
 530 714 562 687 562 651 c 3xbf08
 562 580 500 551 430 534 c 0
 337 510 268 493 191 468 c 0
 115 440 90 377 90 270 c 3
 90 198 115 60 182 60 c 3
 201 60 267 86 299 100 c 1
 290 115 280 146 280 172 c 3
 280 279 347 331 446 331 c 3
 490 331 547 306 547 251 c 3
 547 198 500 171 452 171 c 3
 400 171 383 189 363 226 c 1
 356 206 352 188 352 173 c 3
 352 154 358 138 370 127 c 1xbfa0
497 249 m 3x3f20
 497 264 479 274 455 274 c 3
 431 274 413 264 413 249 c 3
 413 234 431 219 455 219 c 3
 479 219 497 234 497 249 c 3x3f20
467 49 m 3x7f10
 485 49 502 59 502 70 c 3
 502 84 490 90 470 90 c 3
 451 90 432 88 412 80 c 1
 424 65 441 49 467 49 c 3x7f10
280 661 m 259x3f80
 335 661 374 628 374 583 c 259x3f40
 374 538 335 509 280 509 c 259
 225 509 186 540 186 585 c 259
 186 630 225 661 280 661 c 259x3f80
324 585 m 259
 324 601 304 613 280 613 c 3
 256 613 236 601 236 585 c 259
 236 569 256 557 280 557 c 3x3f80
 304 557 324 569 324 585 c 259
EndSplineSet
Fore
SplineSet
324 585 m 3x3f40
 324 601 304 613 280 613 c 3
 256 613 236 601 236 585 c 3
 236 569 256 557 280 557 c 3x3f80
 304 557 324 569 324 585 c 3x3f40
280 661 m 3
 335 661 374 628 374 583 c 2
 374 575 l 1
 403 582 l 1
 456 596 510 621 510 689 c 3
 510 700 508 714 503 729 c 1
 530 714 562 687 562 651 c 3xbf48
 562 580 500 551 430 534 c 0
 337 510 268 493 191 468 c 0
 115 440 90 377 90 270 c 3
 90 198 115 60 182 60 c 3
 201 60 267 86 299 100 c 1
 290 115 280 146 280 172 c 3
 280 279 347 331 446 331 c 3
 490 331 547 306 547 251 c 3xbfa0
 547 198 500 171 452 171 c 3
 400 171 383 189 363 226 c 1
 356 206 352 188 352 173 c 3
 352 154 358 138 370 127 c 1
 396 137 439 147 472 147 c 3
 530 147 574 120 574 66 c 3
 574 12 523 -8 466 -8 c 3x7f90
 420 -8 362 25 336 51 c 1
 283 28 223 -8 168 -8 c 3xbf90
 52 -8 18 145 18 270 c 3
 18 446 58 496 194 530 c 1
 208 534 l 1
 194 547 186 564 186 585 c 3
 186 630 225 661 280 661 c 3
467 49 m 3x7f10
 485 49 502 59 502 70 c 3
 502 84 490 90 470 90 c 3
 451 90 432 88 412 80 c 1
 424 65 441 49 467 49 c 3x7f10
497 249 m 3x3f20
 497 264 479 274 455 274 c 3
 431 274 413 264 413 249 c 3
 413 234 431 219 455 219 c 3
 479 219 497 234 497 249 c 3x3f20
EndSplineSet
EndChar

StartChar: uni0ED6
Encoding: 3798 3798 59
Width: 654
VWidth: 1063
Flags: W
HStem: -8 68<129.822 234.891 331.041 426.052> 223 68<262.775 289.225> 367 48<125.239 183.117> 472 48<126.503 183.84> 585 21G<460 470.5> 710 68<186 273.461>
VStem: 10 72<123.382 386.07> 133 72<698.582 738> 185 50<417.38 469.821> 202 60<156.719 222.182> 290 60<156.608 222.182> 469 72<124.908 464.592>
DStem2: 267 760 246 700 0.896267 -0.443515<-25.1525 236.993>
LayerCount: 2
Fore
SplineSet
276 156 m 1xfe70
 281 172 290 187 290 205 c 3
 290 215 283 223 276 223 c 3
 269 223 262 215 262 205 c 3
 262 187 271 172 276 156 c 1xfe70
154 415 m 3
 170 415 185 429 185 444 c 3xfeb0
 185 459 170 472 154 472 c 3
 138 472 124 459 124 444 c 3
 124 429 138 415 154 415 c 3
158 367 m 3
 130 367 114 373 98 389 c 1
 83 343 82 311 82 260 c 3
 82 183 100 60 176 60 c 3
 198 60 231 69 237 85 c 1
 221 108 202 166 202 208 c 3xfe70
 202 257 230 291 276 291 c 3
 322 291 350 257 350 208 c 3
 350 166 330 121 318 90 c 1
 338 78 356 60 393 60 c 3
 449 60 469 205 469 267 c 3
 469 398 465 428 438 485 c 0
 407 550 245 618 190 649 c 0
 166 663 133 687 133 720 c 3
 133 756 167 778 205 778 c 3
 232 778 238 771 267 760 c 0
 338 725 410 690 479 652 c 0
 488 646 506 628 506 613 c 3
 506 597 478 585 463 585 c 3
 457 585 451 586 446 587 c 1
 446 595 445 603 438 607 c 0
 397 632 289 684 246 700 c 0
 229 706 218 710 214 710 c 3
 211 710 205 710 205 709 c 3xff30
 205 708 218 702 220 701 c 0
 310 656 454 583 496 515 c 0
 534 453 541 391 541 273 c 3
 541 153 508 -8 396 -8 c 3
 359 -8 308 18 282 42 c 1
 261 23 209 -8 170 -8 c 3
 56 -8 10 132 10 255 c 3
 10 373 41 520 153 520 c 3
 195 520 235 488 235 444 c 3
 235 403 200 367 158 367 c 3
EndSplineSet
EndChar

StartChar: uni0ED7
Encoding: 3799 3799 60
Width: 612
VWidth: 1057
Flags: W
HStem: -8 48<55.3979 129.679> 114 48<55.1441 121.508> 411 48<65.6159 121.75> 523 68<241.136 396.482> 543 48<60.0771 126.881>
VStem: 1 50<44.5736 109.295 470.695 538.23> 134 60<45.3969 109.221 461.102 479.604> 425 72<-176 492.703>
LayerCount: 2
Fore
SplineSet
328 591 m 3xf7
 434 591 497 529 497 420 c 2
 497 -176 l 1
 425 -176 l 1
 425 402 l 2
 425 477 405 523 336 523 c 3xf7
 278 523 194 505 194 414 c 2
 194 116 l 2
 194 39 168 -8 91 -8 c 3
 37 -8 1 25 1 75 c 3
 1 128 40 162 83 162 c 3
 96 162 109 160 122 156 c 1
 122 412 l 1
 122 412 112 411 107 411 c 3
 53 411 7 450 7 508 c 3
 7 556 45 591 97 591 c 3xef
 144 591 168 567 186 542 c 1
 215 576 264 591 328 591 c 3xf7
101 459 m 259
 121 459 134 477 134 498 c 3
 134 523 113 543 89 543 c 3xef
 67 543 57 527 57 506 c 3
 57 481 78 459 101 459 c 259
134 77 m 3
 134 98 115 114 92 114 c 3
 69 114 51 98 51 77 c 3
 51 56 69 40 92 40 c 3
 115 40 134 56 134 77 c 3
EndSplineSet
EndChar

StartChar: uni0ED8
Encoding: 3800 3800 61
Width: 707
VWidth: 1063
Flags: W
HStem: -306 48<427.105 527.11> -275 68<103.313 208.621> -171 48<479 517.088> 223 48<133.487 202.817> 368 48<132.624 202.81> 523 68<105.027 169.364 425.309 490.116>
VStem: 22 72<380.693 517.502> 31 72<-206.423 -165.167> 212 50<279.927 359.22> 366 50<-245.327 -192.172> 497 72<-74.7917 518.724> 531 50<-250.893 -183.742>
LayerCount: 2
Fore
SplineSet
478 -258 m 3xbcd0
 508 -258 531 -244 531 -223 c 3
 531 -197 504 -171 472 -171 c 3
 443 -171 416 -181 416 -207 c 3x7cd0
 416 -235 443 -258 478 -258 c 3xbcd0
212 320 m 3
 212 344 190 368 168 368 c 3
 146 368 124 344 124 320 c 3
 124 296 146 271 168 271 c 3
 190 271 212 296 212 320 c 3
581 -221 m 3
 581 -268 541 -306 482 -306 c 3xbcd0
 401 -306 366 -270 366 -209 c 2
 366 -192 l 1
 296 -229 183 -275 110 -275 c 3
 64 -275 31 -241 31 -198 c 3
 31 -156 50 -134 86 -111 c 0
 169 -58 305 -39 483 44 c 1
 475 -28 426 -48 354 -73 c 0
 282 -98 185 -133 123 -165 c 0
 110 -172 103 -180 103 -185 c 3x7dd0
 103 -198 113 -207 127 -207 c 3
 151 -207 174 -200 204 -188 c 0
 296 -146 414 -107 497 -65 c 1
 497 433 l 2
 497 517 486 523 460 523 c 3
 429 523 360 419 308 419 c 3
 226 419 177 523 126 523 c 3
 101 523 94 461 94 429 c 3
 94 424 97 399 99 379 c 1
 113 403 140 416 173 416 c 3
 230 416 262 376 262 320 c 3
 262 262 223 223 165 223 c 3
 65 223 22 327 22 429 c 3
 22 549 76 591 123 591 c 3
 173 591 244 522 301 491 c 1
 341 523 422 591 466 591 c 3
 541 591 569 547 569 448 c 2
 569 -91 l 2x7ee0
 569 -100 499 -117 479 -123 c 1
 537 -123 581 -174 581 -221 c 3
EndSplineSet
EndChar

StartChar: uni0ED9
Encoding: 3801 3801 62
Width: 781
VWidth: 1063
Flags: W
HStem: -8 68<421.243 557.066> -8 48<90.3062 161.411> 125 48<95.1809 161.689> 523 68<139.982 284.776>
VStem: 23 72<164 480.836> 23 60<47.3894 119.176> 168 50<47.3705 118.213> 320 72<90.7922 491.299> 585 72<88.7695 528.258>
LayerCount: 2
Fore
SplineSet
546 577 m 3xbb80
 546 598 559 604 574 607 c 1
 630 573 657 523 657 465 c 2
 657 145 l 2
 657 42 594 -8 497 -8 c 3
 410 -8 320 16 320 123 c 2
 320 453 l 2
 320 487 267 523 215 523 c 3
 141 523 95 469 95 438 c 2
 95 164 l 1xbb80
 102 170 112 173 125 173 c 3
 163 173 218 148 218 83 c 3
 218 18 163 -8 125 -8 c 3
 66 -8 23 40 23 97 c 2x7780
 23 423 l 2
 23 537 98 591 215 591 c 3
 314 591 392 546 392 456 c 2
 392 148 l 2
 392 84 439 60 500 60 c 3
 558 60 585 105 585 148 c 2
 585 473 l 2
 585 499 546 550 546 577 c 3xbb80
168 83 m 3
 168 105 147 125 125 125 c 3
 103 125 83 105 83 83 c 3
 83 61 103 40 125 40 c 3x7780
 147 40 168 61 168 83 c 3
EndSplineSet
EndChar

StartChar: uni0EDC
Encoding: 3804 3804 63
Width: 1052
VWidth: 1063
Flags: W
HStem: -8 68<124.751 288.672 705.706 845.027> 0 21G<533 626.5> 396 48<65.0983 129.976> 445 48<290.371 348> 523 68<461.364 566.011> 543 48<64.4338 155.448 288.555 353.507> 560 20G<835 926>
VStem: 4 72<104.456 228.45> 5 50<454.375 533.33> 165 60<454.285 533.225> 238 50<495.676 539.666> 347 72<112.603 445> 581 72<104.89 508.707> 869 72<82.6575 559.144>
AnchorPoint: "AboveBase" 683 617 basechar 0
AnchorPoint: "BelowBase" 794 -35 basechar 0
LayerCount: 2
Fore
SplineSet
55 494 m 3x34fc
 55 467 77 444 110 444 c 3
 143 444 165 467 165 494 c 3
 165 521 143 543 110 543 c 3
 77 543 55 521 55 494 c 3x34fc
288 519 m 3
 288 502 305 493 323 493 c 3
 336 493 346 495 358 496 c 1
 358 521 347 543 327 543 c 3
 305 543 288 530 288 519 c 3
581 450 m 2
 581 498 560 523 517 523 c 3
 488 523 455 504 419 459 c 1
 419 150 l 2
 419 69 316 -8 211 -8 c 3
 95 -8 4 46 4 172 c 3xb97c
 4 252 93 343 130 398 c 1
 130 398 115 396 110 396 c 3
 55 396 5 437 5 489 c 3xb8fc
 5 551 51 591 107 591 c 3
 164 591 225 554 225 491 c 3
 225 360 76 239 76 172 c 3
 76 95 136 60 208 60 c 3
 281 60 347 111 347 160 c 2
 348 445 l 1
 291 445 238 450 238 520 c 3
 238 569 281 591 330 591 c 3xb57c
 372 591 397 574 412 535 c 1
 433 576 473 591 531 591 c 3x397c
 609 591 652 555 652 474 c 2
 653 126 l 1
 697 80 732 60 779 60 c 3
 835 60 869 88 869 137 c 2
 869 482 l 2
 869 524 850 556 835 580 c 1
 918 580 l 1
 934 547 941 513 941 482 c 2
 941 116 l 2
 941 30 858 -8 766 -8 c 3xb37c
 715 -8 676 4 649 36 c 1
 639 23 631 11 622 0 c 1
 533 0 l 1x717c
 555 26 581 65 581 109 c 2
 581 450 l 2
EndSplineSet
EndChar

StartChar: uni0EDD
Encoding: 3805 3805 64
Width: 1073
VWidth: 1063
Flags: W
HStem: -8 68<129.536 294.49 703.073 852.302> -8 57<510.519 589.255> 149 48<510.598 584.614> 396 48<70.1122 133.822> 445 48<295.371 353> 523 68<466.364 570.094> 543 48<69.6318 160.851 293.42 358.507> 560 20G<840 931>
VStem: 9 72<104.456 225.748> 10 50<454.039 533.33> 170 60<455.436 533.014> 243 50<495.605 540.874> 352 72<110.024 445> 452 50<57.308 141.522> 585 72<192 507.95> 597 60<100.058 140.676> 874 72<82.5386 559.8>
AnchorPoint: "AboveBase" 688 617 basechar 0
AnchorPoint: "BelowBase" 799 -35 basechar 0
LayerCount: 2
Fore
SplineSet
60 494 m 3x3a7c80
 60 467 82 444 115 444 c 3
 148 444 170 467 170 494 c 3
 170 521 148 543 115 543 c 3
 82 543 60 521 60 494 c 3x3a7c80
293 519 m 3
 293 501 309 493 328 493 c 3
 341 493 351 495 363 496 c 1
 363 521 352 543 332 543 c 3
 311 543 293 536 293 519 c 3
243 520 m 3
 243 568 281 591 335 591 c 3xbabc80
 377 591 402 574 417 535 c 1
 438 576 478 591 536 591 c 3
 614 591 657 555 657 474 c 2x3cbe80
 657 141 l 2
 657 91 738 60 784 60 c 3
 846 60 874 91 874 137 c 2
 874 482 l 2
 874 534 855 555 840 580 c 1
 923 580 l 1
 939 547 946 513 946 482 c 2
 946 116 l 2
 946 30 863 -8 771 -8 c 3xb93d80
 718 -8 676 6 637 31 c 1
 611 5 583 -8 561 -8 c 3x783d80
 495 -8 452 42 452 99 c 3
 452 158 500 197 562 197 c 3
 568 197 576 195 585 192 c 1
 585 450 l 2
 585 492 564 523 522 523 c 3
 493 523 460 504 424 459 c 1
 424 150 l 2
 424 79 333 -8 216 -8 c 3
 99 -8 9 46 9 172 c 3xbcbe80
 9 255 97 343 134 398 c 1
 134 398 119 396 114 396 c 3
 66 396 10 430 10 489 c 3xbc7c80
 10 551 56 591 113 591 c 3
 170 591 230 553 230 491 c 3
 230 371 81 229 81 172 c 3
 81 95 141 60 213 60 c 3xbabc80
 289 60 352 109 352 160 c 2
 353 445 l 1
 296 445 243 450 243 520 c 3
597 98 m 3x783d80
 597 125 578 149 549 149 c 3
 520 149 502 126 502 99 c 3
 502 72 520 49 549 49 c 3
 578 49 597 71 597 98 c 3x783d80
EndSplineSet
EndChar

StartChar: uni0E92
Encoding: 3730 3730 68
Width: 1082
VWidth: 1063
Flags: W
HStem: -8 68<641.946 798.413> -8 57<151.502 221.154 452.154 537.191> 135 48<150.74 223.279> 142 48<453.467 536.912> 523 68<108.685 207.012 405.98 504.652> 560 20G<795 887.5>
VStem: 4 72<119.043 485.348> 229 50<56.0483 130.28> 394 50<56.779 131.912> 546 72<82.9657 132.448 176 469.922> 833 72<91.5312 551.335>
AnchorPoint: "AboveBase" 582 617 basechar 0
AnchorPoint: "BelowBase" 725 -35 basechar 0
LayerCount: 2
Fore
SplineSet
145 92 m 3x63e0
 145 67 163 49 187 49 c 3
 211 49 229 73 229 93 c 3
 229 118 211 135 187 135 c 3
 163 135 145 117 145 92 c 3x63e0
546 96 m 3
 546 120 520 142 495 142 c 3x53e0
 470 142 444 121 444 96 c 3
 444 67 467 49 495 49 c 3
 521 49 546 69 546 96 c 3
496 190 m 3
 510 190 530 183 546 176 c 1
 546 370 l 2
 546 438 517 523 463 523 c 3
 414 523 373 475 349 433 c 0
 342 419 329 404 311 404 c 3
 297 404 280 420 275 431 c 0
 249 469 199 523 153 523 c 3
 112 523 76 473 76 408 c 2
 76 192 l 2
 76 165 77 129 95 115 c 1
 105 158 141 183 184 183 c 3
 235 183 279 149 279 92 c 3
 279 29 232 -8 176 -8 c 3
 76 -8 4 67 4 169 c 2
 3 396 l 2
 3 505 55 591 156 591 c 3
 223 591 280 554 310 509 c 1
 342 549 393 591 464 591 c 3x6be0
 563 591 618 502 618 393 c 2
 618 102 l 1
 641 79 664 60 717 60 c 3
 781 60 833 88 833 145 c 2
 833 479 l 2
 833 508 814 552 795 580 c 1
 879 580 l 1
 896 546 905 512 905 479 c 2
 905 120 l 2
 905 40 801 -8 717 -8 c 3x87e0
 666 -8 623 5 586 32 c 1
 557 5 526 -8 495 -8 c 3
 448 -8 394 31 394 95 c 3
 394 156 450 190 496 190 c 3
EndSplineSet
EndChar

StartChar: uni0EAC
Encoding: 3756 3756 69
Width: 645
VWidth: 1063
Flags: W
HStem: -4 57<143.05 221.548> 137 48<141.979 221.733> 328 68<195.344 397.538> 447 68<300.739 434.085> 523 68<72.7773 194.608>
VStem: 1 72<108.111 237.729 459.65 519.89> 228 50<60.0825 130.748> 362 109<0 109> 485 72<99.4446 257.762>
AnchorPoint: "AboveBase" 277 617 basechar 0
AnchorPoint: "BelowBase" 370 -35 basechar 0
LayerCount: 2
Fore
SplineSet
136 95 m 3
 136 72 156 53 182 53 c 3
 208 53 228 72 228 95 c 3
 228 118 208 137 182 137 c 3
 156 137 136 118 136 95 c 3
114 523 m 3
 93 523 70 516 70 491 c 3
 70 447 225 409 268 396 c 1
 423 396 557 346 557 194 c 3
 557 103 520 40 471 0 c 1
 362 0 l 1
 417 45 485 81 485 186 c 3
 485 303 370 328 252 328 c 3
 184 328 73 269 73 166 c 3
 73 146 79 120 86 106 c 1
 94 152 134 185 182 185 c 3
 230 185 278 154 278 97 c 3
 278 32 230 -4 175 -4 c 3
 60 -4 1 58 1 173 c 3
 1 292 60 338 133 370 c 1
 82 389 -2 419 -2 482 c 3
 -2 555 56 591 114 591 c 3
 216 591 320 515 372 515 c 3
 436 515 468 568 493 614 c 1
 563 595 l 1
 512 512 466 447 372 447 c 3
 270 447 190 523 114 523 c 3
EndSplineSet
EndChar

StartChar: uni0E8C
Encoding: 3724 3724 70
Width: 665
VWidth: 1063
Flags: W
HStem: -8 68<126.896 302.792> 54 68<370.384 484.649> 320 48<85.9287 157.246> 436 48<110.436 156.665> 523 68<128.65 263.083 342.279 469.028>
VStem: 23 60<372.115 473.843> 51 72<71.329 103.858> 160 50<372.513 431.788> 487 72<-178.85 50.4621> 512 72<306.282 476.22>
AnchorPoint: "AboveBase" 303 617 basechar 0
AnchorPoint: "BelowBase" 342 -35 basechar 0
LayerCount: 2
Fore
SplineSet
160 402 m 3x3d
 160 421 142 436 121 436 c 3
 100 436 83 421 83 402 c 3
 83 383 100 368 121 368 c 3
 142 368 160 383 160 402 c 3x3d
461 122 m 3x7b40
 519 122 559 86 559 34 c 2
 559 -78 l 2
 559 -126 569 -171 591 -193 c 1
 510 -214 l 1
 493 -157 487 -119 487 -55 c 2
 487 20 l 2
 487 40 473 54 442 54 c 3x7b80
 398 54 309 -8 197 -8 c 3
 95 -8 51 44 51 101 c 3xbb80
 51 152 165 175 210 178 c 0
 244 180 285 187 331 198 c 0
 423 220 512 286 512 388 c 3
 512 470 475 523 403 523 c 3
 359 523 330 502 304 445 c 1
 276 495 256 523 193 523 c 3
 156 523 130 508 110 483 c 1
 116 484 121 484 126 484 c 3
 162 484 210 451 210 405 c 3
 210 352 170 320 125 320 c 3
 53 320 23 364 23 430 c 3xbd40
 23 515 109 591 188 591 c 3
 239 591 284 573 303 542 c 1
 315 565 355 591 411 591 c 3
 524 591 584 496 584 379 c 3
 584 244 472 185 368 147 c 0
 332 134 287 125 235 120 c 0
 184 116 123 104 123 89 c 3
 123 70 179 60 196 60 c 3xbb40
 285 60 381 122 461 122 c 3x7b40
EndSplineSet
EndChar

StartChar: uni0EA8
Encoding: 3752 3752 71
Width: 700
VWidth: 1063
Flags: W
HStem: -8 57<148.301 253.991> 0 21G<466 556.5> 121 48<182.217 254.945> 226 48<135.9 238.616> 350 48<144.324 238.291> 523 68<162.744 405.792>
VStem: 3 72<90.7515 259.767 353.678 452.192> 129 50<59.2173 115.735> 243 50<280.571 344.707> 258 50<53.7739 117.225> 501 72<28.0688 443.663>
AnchorPoint: "AboveBase" 288 617 basechar 0
AnchorPoint: "BelowBase" 383 -35 basechar 0
LayerCount: 2
Back
SplineSet
43 304 m 1xbfa0
 23 331 7 359 7 408 c 3
 7 536 162 591 297 591 c 3
 424 591 573 528 573 435 c 2
 573 71 l 2
 573 56 563 33 550 0 c 1
 466 0 l 1
 479 28 501 66 501 96 c 2
 501 409 l 2
 501 477 379 523 301 523 c 3
 193 523 79 495 79 390 c 3
 79 370 82 359 85 353 c 1
 111 383 141 398 195 398 c 3
 250 398 293 363 293 311 c 3x7fc8
 293 263 249 226 196 226 c 3
 147 226 116 241 89 261 c 1
 80 242 75 217 75 185 c 3
 75 124 94 73 132 59 c 1
 129 79 l 1
 129 128 179 169 221 169 c 3
 263 169 308 130 308 79 c 3
 308 35 259 -8 214 -8 c 3
 66 -8 3 60 3 190 c 3
 3 243 18 271 43 304 c 1xbfa0
191 274 m 3
 216 274 243 284 243 310 c 3
 243 335 224 350 196 350 c 3
 169 350 145 335 124 306 c 1
 145 285 167 274 191 274 c 3
219 49 m 3xbfa0
 241 49 258 67 258 87 c 3
 258 107 241 121 219 121 c 3
 197 121 179 107 179 87 c 3
 179 67 197 49 219 49 c 3xbfa0
474 614 m 1x3f90
 549 623 l 1
 533 497 509 425 405 399 c 1
 373 463 l 1
 448 468 471 535 474 614 c 1x3f90
EndSplineSet
Fore
SplineSet
474 614 m 1xbf60
 549 623 l 1
 544 582 538 548 529 518 c 1
 556 495 573 466 573 435 c 2
 573 71 l 2
 573 56 563 33 550 0 c 1
 466 0 l 1
 479 28 501 66 501 96 c 2
 501 409 l 2
 501 422 497 434 489 445 c 1
 469 424 442 408 405 399 c 1
 373 463 l 1
 400 465 419 474 434 489 c 1
 393 510 341 523 301 523 c 3
 193 523 79 495 79 390 c 3
 79 370 82 359 85 353 c 1
 111 383 141 398 195 398 c 3
 250 398 293 363 293 311 c 3x7fa0
 293 263 249 226 196 226 c 3
 147 226 116 241 89 261 c 1
 80 242 75 217 75 185 c 3
 75 124 94 73 132 59 c 1
 129 79 l 1
 129 128 179 169 221 169 c 3
 263 169 308 130 308 79 c 3
 308 35 259 -8 214 -8 c 3
 66 -8 3 60 3 190 c 3
 3 243 18 271 43 304 c 1
 23 331 7 359 7 408 c 3
 7 536 162 591 297 591 c 3
 354 591 416 578 467 555 c 1
 471 573 473 593 474 614 c 1xbf60
219 49 m 3xbf60
 241 49 258 67 258 87 c 3
 258 107 241 121 219 121 c 3
 197 121 179 107 179 87 c 3
 179 67 197 49 219 49 c 3xbf60
191 274 m 3
 216 274 243 284 243 310 c 3x3fa0
 243 335 224 350 196 350 c 3
 169 350 145 335 124 306 c 1
 145 285 167 274 191 274 c 3
EndSplineSet
EndChar

StartChar: uni0EA9
Encoding: 3753 3753 72
Width: 708
VWidth: 1063
Flags: W
HStem: -8 68<168.484 410.706> 246 68<387.301 512> 392 48<76.0625 125.102> 543 48<74.8008 154.293> 560 20G<472 564.5>
VStem: 16 72<126.265 239.487> 17 50<447.657 535.398> 163 60<448.296 534.97> 512 72<138.781 246 324 545.504>
AnchorPoint: "AboveBase" 300 617 basechar 0
AnchorPoint: "BelowBase" 395 -35 basechar 0
LayerCount: 2
Back
SplineSet
340 380 m 1
 361 344 397 314 494 314 c 3
 589 314 636 337 682 381 c 1
 699 368 708 355 708 336 c 3
 708 282 616 246 494 246 c 3
 379 246 323 264 284 330 c 1
 284 330 340 380 340 380 c 1
88 189 m 3xf580
 88 92 195 60 293 60 c 3
 397 60 512 106 512 205 c 2
 512 473 l 2
 512 517 487 549 472 580 c 1
 561 580 l 1
 568 553 584 532 584 501 c 2
 584 205 l 2
 584 65 445 -8 293 -8 c 3
 156 -8 16 44 16 189 c 0xed80
 16 269 80 313 126 386 c 1
 125 392 117 392 112 392 c 3
 62 392 17 430 17 486 c 3xeb80
 17 547 59 591 112 591 c 3
 169 591 223 553 223 489 c 3
 223 450 214 409 202 388 c 0
 173 338 88 220 88 189 c 3xf580
163 492 m 3
 163 523 143 543 115 543 c 3
 87 543 67 523 67 492 c 3xf380
 67 461 87 440 115 440 c 3
 143 440 163 461 163 492 c 3
440 340 m 1
 461 324 497 314 544 314 c 3
 589 314 636 337 682 381 c 1
 699 368 708 355 708 336 c 3
 708 282 616 246 548 246 c 3
 483 246 429 267 384 290 c 1
 384 290 440 340 440 340 c 1
EndSplineSet
Fore
SplineSet
340 380 m 1xf580
 361 344 397 314 494 314 c 3
 500 314 506 314 512 314 c 1
 512 473 l 2
 512 517 487 549 472 580 c 1
 561 580 l 1
 568 553 584 532 584 501 c 2
 584 324 l 1
 625 335 653 354 682 381 c 1
 699 368 708 355 708 336 c 3
 708 296 659 266 584 253 c 1
 584 205 l 2
 584 65 445 -8 293 -8 c 3
 156 -8 16 44 16 189 c 3xed80
 16 269 80 313 126 386 c 1
 125 392 117 392 112 392 c 3
 62 392 17 430 17 486 c 3xeb80
 17 547 59 591 112 591 c 3
 169 591 223 553 223 489 c 3
 223 450 214 409 202 388 c 0
 173 338 88 220 88 189 c 3
 88 92 195 60 293 60 c 3
 397 60 512 106 512 205 c 2
 512 246 l 1
 506 246 500 246 494 246 c 3
 379 246 323 264 284 330 c 1
 340 380 l 1xf580
163 492 m 3
 163 523 143 543 115 543 c 3
 87 543 67 523 67 492 c 3xf380
 67 461 87 440 115 440 c 3
 143 440 163 461 163 492 c 3
EndSplineSet
EndChar

StartChar: uni0EAF
Encoding: 3759 3759 73
Width: 481
VWidth: 1063
Flags: W
HStem: 0 21G<341 413> 351 68<148.222 250.412> 543 48<82.9971 150.066> 560 20G<328.5 413>
VStem: 19 60<474.357 539.586> 154 50<474.444 538.877> 341 72<0 425 520.604 580>
LayerCount: 2
Fore
SplineSet
116 591 m 259xee
 167 591 204 562 204 509 c 3
 204 470 190 440 147 422 c 1
 153 420 168 419 182 419 c 3
 250 419 315 481 342 580 c 1
 413 580 l 1xde
 413 0 l 1
 341 0 l 1
 341 425 l 1
 308 382 251 351 182 351 c 3
 92 351 19 411 19 482 c 3
 19 539 54 591 116 591 c 259xee
116 543 m 3xee
 96 543 79 527 79 507 c 259
 79 487 96 470 116 470 c 3
 136 470 154 487 154 507 c 259
 154 527 136 543 116 543 c 3xee
EndSplineSet
EndChar

StartChar: uni0EA0
Encoding: 3744 3744 74
Width: 783
VWidth: 1059
Flags: W
HStem: -8 48<97.6487 162.746> 0 21G<545 637> 121 48<96.8438 157.629> 523 68<323.415 543.847> 543 48<64.1525 146.334>
VStem: 9 50<456.933 536.2> 42 50<44.9062 115.311> 158 71<168 457.194> 169 60<46.7072 116.154> 584 72<32.7868 485.798>
AnchorPoint: "AboveBase" 406 617 basechar 0
AnchorPoint: "BelowBase" 440 -35 basechar 0
LayerCount: 2
Fore
SplineSet
169 81 m 3xa2c0
 169 103 148 121 130 121 c 3
 112 121 92 103 92 81 c 3
 92 59 112 40 130 40 c 3
 148 40 169 59 169 81 c 3xa2c0
52 425 m 1
 28 441 9 462 9 501 c 3
 9 561 53 591 114 591 c 3xad40
 154 591 209 571 215 527 c 1
 276 567 346 591 444 591 c 3
 538 591 656 548 656 463 c 2
 656 97 l 2
 656 50 643 27 631 0 c 1
 545 0 l 1
 561 33 584 61 584 97 c 2
 584 439 l 2
 584 500 511 523 444 523 c 3
 389 523 299 512 229 438 c 1x7540
 229 79 l 2
 229 30 187 -8 133 -8 c 3
 84 -8 42 30 42 79 c 3xb2c0
 42 140 79 169 135 169 c 3
 145 169 153 168 158 168 c 1
 157 483 l 2
 157 517 137 543 113 543 c 3
 81 543 59 527 59 506 c 3xad40
 59 489 69 475 83 470 c 1
 52 425 l 1
EndSplineSet
EndChar

StartChar: uni0E8F
Encoding: 3727 3727 75
Width: 695
VWidth: 1063
Flags: W
HStem: -8 68<114.714 244.22 380.11 485.872> 244 68<123.566 235.991> 403 48<180.073 250.643> 534 57<179.074 251.069> 560 20G<472 568>
VStem: 13 72<89.6774 209.336 344.8 475.425> 257 50<456.804 527.738> 277 72<92.9844 180> 513 72<89.0312 548.032>
AnchorPoint: "AboveBase" 313 617 basechar 0
AnchorPoint: "BelowBase" 395 -35 basechar 0
LayerCount: 2
Fore
SplineSet
124 497 m 1xf680
 100 486 89 429 89 385 c 3
 89 332 153 312 207 312 c 3
 217 312 227 313 238 314 c 1
 236 242 l 1
 236 242 223 244 218 244 c 3
 129 244 85 211 85 146 c 3
 85 100 122 60 172 60 c 3
 231 60 277 90 277 156 c 2
 277 180 l 1
 349 180 l 1
 349 141 l 2
 349 100 391 60 438 60 c 3
 488 60 513 112 513 160 c 2
 513 471 l 2
 513 506 495 549 472 580 c 1
 564 580 l 1xed80
 572 554 585 533 585 498 c 2
 585 143 l 2
 585 71 534 -8 441 -8 c 3
 371 -8 333 21 313 67 c 1
 277 31 241 -8 169 -8 c 3
 73 -8 13 48 13 144 c 3
 13 209 26 237 77 266 c 1
 41 290 17 328 17 395 c 3
 17 500 103 591 202 591 c 3
 261 591 307 556 307 496 c 3
 307 438 268 403 220 403 c 3
 165 403 130 443 124 497 c 1xf680
257 493 m 3xf680
 257 515 238 534 215 534 c 3
 193 534 174 515 174 493 c 3
 174 470 193 451 215 451 c 3
 238 451 257 470 257 493 c 3xf680
EndSplineSet
EndChar

StartChar: uni0E98
Encoding: 3736 3736 76
Width: 697
VWidth: 1059
Flags: W
HStem: -8 68<105.924 219.24 385.375 491.254> 74 48<91.7069 144.658> 211 48<65.5691 145.083> 440 68<322.732 452.017> 523 68<71.7507 202.599>
VStem: -2 72<463.867 518.454> -2 60<130.024 203.745> 153 50<130.643 203.359> 268 72<111.476 215> 515 72<83.5994 226.264>
AnchorPoint: "AboveBase" 292 617 basechar 0
AnchorPoint: "BelowBase" 388 -35 basechar 0
LayerCount: 2
Fore
SplineSet
105 122 m 3xfbc0
 131 122 153 143 153 167 c 3
 153 191 131 211 105 211 c 3
 79 211 58 191 58 167 c 3
 58 143 79 122 105 122 c 3xfbc0
304 73 m 1
 275 32 231 -8 167 -8 c 3
 78 -8 -2 50 -2 139 c 3xfbc0
 -2 216 48 259 110 259 c 3
 167 259 203 221 203 165 c 3
 203 119 163 74 117 74 c 0
 111 74 113 75 104 76 c 1
 126 66 146 60 164 60 c 3
 215 60 255 111 268 155 c 1
 268 215 l 1
 340 215 l 1
 340 149 l 1
 349 101 401 60 440 60 c 3
 492 60 515 104 515 154 c 3
 515 207 492 239 454 261 c 0
 389 298 157 364 57 406 c 0
 23 422 -2 440 -2 483 c 3
 -2 543 50 591 117 591 c 3
 224 591 345 508 384 508 c 3
 455 508 490 564 517 615 c 1
 591 595 l 1
 536 504 486 440 384 440 c 3
 290 440 200 523 120 523 c 3
 96 523 70 516 70 496 c 3xfdc0
 70 465 96 462 132 447 c 0
 260 394 397 358 512 302 c 0
 561 278 587 230 587 155 c 3
 587 55 536 -8 451 -8 c 3
 388 -8 334 33 304 73 c 1
EndSplineSet
EndChar

StartChar: uni0E93
Encoding: 3731 3731 77
Width: 927
VWidth: 1063
Flags: W
HStem: -8 57<147.433 222.141> 0 21G<392 464 706 804> 131 48<147.089 221.729> 523 68<138.333 337.194 512.377 706.649>
VStem: 3 72<119.396 461.509> 228 50<55.4462 124.678> 392 72<0 476.976> 747 72<30.6975 482.93>
AnchorPoint: "AboveBase" 428 617 basechar 0
AnchorPoint: "BelowBase" 547 -35 basechar 0
LayerCount: 2
Fore
SplineSet
228 90 m 3xbf
 228 109 210 131 184 131 c 3
 159 131 141 109 141 90 c 3
 141 71 159 49 184 49 c 3
 210 49 228 71 228 90 c 3xbf
819 106 m 2
 819 58 813 35 795 0 c 1
 706 0 l 1
 725 30 747 56 747 107 c 2
 747 422 l 2
 747 504 681 523 598 523 c 3
 547 523 464 499 464 421 c 2
 464 0 l 1
 392 0 l 1x7f
 392 421 l 2
 392 499 299 523 242 523 c 3
 133 523 75 480 75 373 c 2
 75 183 l 2
 75 161 83 133 91 116 c 1
 97 156 147 179 184 179 c 3
 233 179 278 141 278 88 c 3
 278 31 227 -8 176 -8 c 3
 73 -8 3 68 3 169 c 2
 3 362 l 2
 3 514 86 591 229 591 c 3
 315 591 370 582 428 527 c 1
 475 581 534 591 624 591 c 3
 719 591 819 520 819 424 c 2
 819 106 l 2
EndSplineSet
EndChar

StartChar: uni0E8E
Encoding: 3726 3726 78
Width: 899
VWidth: 1063
Flags: W
HStem: -8 68<516.215 625.248> -8 60<154.55 259.539> 129 48<187.557 259.019> 235 48<143.702 245.012> 364 48<149.505 245.133> 523 68<143.445 339.631> 560 20G<663 735>
VStem: 3 72<99.6254 269.123 365.584 463.679> 133 50<65.1494 124.321> 250 50<290.523 358.824> 264 50<56.8817 124.321> 415 72<90.1622 458.696> 663 72<102.651 580>
AnchorPoint: "AboveBase" 369 617 basechar 0
AnchorPoint: "BelowBase" 575 -35 basechar 0
LayerCount: 2
Fore
SplineSet
196 283 m 3x39d8
 222 283 250 295 250 322 c 3
 250 349 232 364 202 364 c 3
 174 364 150 349 128 319 c 1
 150 296 172 283 196 283 c 3x39d8
223 52 m 3x79b8
 245 52 264 69 264 91 c 3
 264 112 245 129 223 129 c 3
 202 129 183 112 183 91 c 3
 183 69 202 52 223 52 c 3x79b8
44 316 m 1
 24 342 7 373 7 414 c 3
 7 528 128 591 245 591 c 3x7db8
 370 591 487 522 487 401 c 2
 487 164 l 2
 487 99 516 60 574 60 c 259
 623 60 663 115 663 164 c 2
 663 580 l 1
 735 580 l 1xbbb8
 735 166 l 2
 735 71 670 -8 575 -8 c 3
 461 -8 415 49 415 178 c 2
 415 400 l 2
 415 469 334 523 247 523 c 3
 171 523 79 491 79 408 c 3
 79 393 83 379 90 365 c 1
 114 397 145 412 202 412 c 3
 257 412 300 376 300 322 c 259xbdd8
 300 271 256 235 203 235 c 3
 151 235 121 250 92 270 c 1
 80 251 75 226 75 193 c 3
 75 133 92 80 137 65 c 1
 137 65 133 77 133 83 c 3
 133 136 178 177 223 177 c 3
 268 177 314 136 314 83 c 3
 314 36 263 -8 215 -8 c 3
 73 -8 3 57 3 197 c 3
 3 252 18 281 44 316 c 1
EndSplineSet
EndChar

StartChar: uni0E91
Encoding: 3729 3729 79
Width: 808
VWidth: 1063
Flags: MW
HStem: -8 68<156.452 318.104> 0 21G<594 691.5> 406 48<50.3953 111.002> 494 57<167.213 217.848> 523 68<52.6997 138.665 472.409 600.418> 534 57<99.5715 168.117 221.851 272.419>
VStem: -2 50<456.178 514.276> 35 72<107.014 235.34> 113 50<456.088 515.411> 275 72<410.995 532.767> 370 72<106.059 491.481> 635 72<32.3993 485.109>
AnchorPoint: "AboveBase" 352 617 basechar 0
AnchorPoint: "BelowBase" 464 -35 basechar 0
LayerCount: 2
Fore
SplineSet
113 486 m 3x22f0
 113 504 98 517 81 517 c 3
 63 517 48 504 48 486 c 3
 48 467 63 454 81 454 c 3
 98 454 113 467 113 486 c 3x22f0
80 406 m 259
 38 406 -2 437 -2 486 c 3
 -2 540 59 591 115 591 c 3x26f0
 168 591 172 551 196 551 c 3x32f0
 218 551 207 591 263 591 c 3
 325 591 347 550 347 479 c 3
 347 407 291 312 220 288 c 0
 155 267 107 236 107 177 c 3
 107 97 167 60 243 60 c 3xa5f0
 308 60 370 102 370 162 c 2
 370 407 l 2
 370 529 410 591 534 591 c 3
 648 591 707 524 707 407 c 2
 707 108 l 2
 707 58 700 36 683 0 c 1
 594 0 l 1x65f0
 612 32 635 56 635 109 c 2
 635 405 l 2
 635 474 607 523 534 523 c 3
 467 523 442 478 442 407 c 2
 442 164 l 2
 442 72 362 -8 247 -8 c 3
 123 -8 35 47 35 177 c 3
 35 277 104 317 166 337 c 0
 232 359 275 424 275 493 c 3
 275 522 267 534 255 534 c 3xa5f0
 228 534 217 494 196 494 c 3x31f0
 178 494 159 534 143 534 c 3x25f0
 140 534 138 534 136 533 c 1
 149 523 163 501 163 486 c 3
 163 446 126 406 80 406 c 259
EndSplineSet
EndChar

StartChar: uni0E86
Encoding: 3718 3718 80
Width: 783
VWidth: 1063
Flags: W
HStem: -8 68<163.113 327.118 481.668 586.025> 406 48<61.5218 121.719> 494 57<179.081 228.466> 534 57<100.384 179.081 237.36 278.964> 560 20G<376 448 627 699>
VStem: 9 50<456.702 514.595> 45 72<101.903 221.896> 124 50<455.798 515.398> 282 72<397.731 533.563> 376 72<112.286 580> 627 72<103.179 580>
AnchorPoint: "AboveBase" 412 617 basechar 0
AnchorPoint: "BelowBase" 469 -35 basechar 0
LayerCount: 2
Fore
SplineSet
124 486 m 3xc5e0
 124 504 109 517 92 517 c 3
 74 517 59 503 59 486 c 3
 59 468 74 454 92 454 c 3
 110 454 124 468 124 486 c 3xc5e0
535 60 m 259
 584 60 627 114 627 163 c 2
 627 580 l 1
 699 580 l 1xcbe0
 699 163 l 2
 699 66 634 -8 538 -8 c 3
 480 -8 453 20 410 55 c 1
 382 20 324 -8 257 -8 c 3
 134 -8 45 49 45 165 c 3
 45 265 114 306 177 326 c 0
 243 348 282 415 282 482 c 3
 282 511 277 534 265 534 c 3xd3e0
 245 534 233 494 211 494 c 3xe3e0
 193 494 169 534 151 534 c 3
 148 534 146 534 144 533 c 1
 158 523 174 507 174 481 c 3
 174 437 136 406 91 406 c 259
 49 406 9 436 9 478 c 3
 9 540 66 591 126 591 c 3xd5e0
 180 591 182 551 206 551 c 3xe5e0
 228 551 218 591 273 591 c 3xd5e0
 331 591 354 539 354 468 c 3
 354 393 299 294 231 277 c 0
 166 260 117 218 117 165 c 3
 117 93 178 60 251 60 c 3
 339 60 376 116 376 208 c 2
 376 580 l 1
 448 580 l 1xcbe0
 448 208 l 2
 448 122 469 60 535 60 c 259
EndSplineSet
EndChar

StartChar: uni0E89
Encoding: 3721 3721 81
Width: 684
VWidth: 1063
Flags: W
HStem: -8 68<87.0394 182.327 315.271 477.519> 114 68<88.1359 170.763> 178 48<233.752 263> 307 48<232.499 300.519> 523 68<139.713 408.127>
VStem: 14 72<62.2291 110.825 443.512 491.597> 178 50<229.96 302.8> 305 50<230.656 302.567> 519 72<110.161 411.165>
AnchorPoint: "AboveBase" 302 617 basechar 0
AnchorPoint: "BelowBase" 399 -35 basechar 0
LayerCount: 2
Fore
SplineSet
122 114 m 3xdf80
 105 114 86 101 86 85 c 3
 86 69 103 60 119 60 c 3
 131 60 153 65 184 82 c 1
 161 103 139 114 122 114 c 3xdf80
305 267 m 259
 305 289 288 307 266 307 c 259
 245 307 228 289 228 267 c 259
 228 244 244 226 266 226 c 259xbf80
 288 226 305 244 305 267 c 259
266 355 m 259
 319 355 355 313 355 256 c 3
 355 191 312 117 294 99 c 1
 321 70 361 62 416 62 c 3
 488 62 519 96 519 293 c 3
 519 447 442 523 296 523 c 3
 215 523 87 512 87 465 c 3
 87 452 96 449 111 441 c 1
 107 422 94 397 86 380 c 1
 64 393 15 417 15 462 c 3
 15 556 184 591 296 591 c 3
 487 591 591 483 591 293 c 3
 591 38 545 -8 410 -8 c 3
 340 -8 288 7 249 39 c 1
 198 8 154 -8 119 -8 c 3
 54 -8 14 37 14 89 c 3
 14 142 57 182 111 182 c 3xdf80
 141 182 183 166 233 136 c 1
 246 148 256 163 263 178 c 1
 216 180 178 218 178 266 c 3
 178 315 220 355 266 355 c 259
EndSplineSet
EndChar

StartChar: uni0E90
Encoding: 3728 3728 82
Width: 654
VWidth: 1054
Flags: W
HStem: -8 48<66.1901 142.933> 121 48<67.3634 115.562> 523 68<158.339 386.914>
VStem: 9 72<338.703 461.823> 10 50<46.7846 113.027> 149 60<45.9993 113.035> 482 72<-85.9864 448.213>
AnchorPoint: "AboveBase" 276 617 basechar 0
AnchorPoint: "BelowBase" 324 -35 basechar 0
LayerCount: 2
Fore
SplineSet
482 383 m 2xf6
 482 478 372 523 276 523 c 3
 183 523 81 489 81 404 c 3xf6
 81 329 209 212 209 80 c 3
 209 23 156 -8 103 -8 c 3
 46 -8 10 36 10 83 c 3xee
 10 130 49 169 102 169 c 3
 109 169 114 169 116 173 c 1
 83 242 9 308 9 404 c 3
 9 534 138 591 276 591 c 3
 420 591 554 522 554 384 c 2
 554 7 l 2
 554 -47 583 -111 611 -157 c 1
 523 -157 l 1
 498 -110 482 -49 482 7 c 2
 482 383 l 2xf6
105 121 m 3
 81 121 60 99 60 81 c 3xee
 60 59 82 40 105 40 c 3
 128 40 149 57 149 81 c 3
 149 104 128 121 105 121 c 3
EndSplineSet
EndChar
